<?xml version="1.0" encoding="utf-8"?>
<!-- Generator: Adobe Illustrator 26.0.1, SVG Export Plug-In . SVG Version: 6.00 Build 0)  -->
<svg version="1.1" id="Layer_1" xmlns="http://www.w3.org/2000/svg" xmlns:xlink="http://www.w3.org/1999/xlink" x="0px" y="0px"
	 viewBox="0 0 273.2 270.4" style="enable-background:new 0 0 273.2 270.4;" xml:space="preserve">
<style type="text/css">
	.st0{fill:#FFFFFF;}
</style>
<g>
	<path class="st0" d="M263.5,135.4c0.5,70.1-59.1,129.6-131.7,126.7C68,259.6,9.7,206.9,9.7,134.3c0-69.1,57.4-126,127.1-126.1
		C206.6,8.1,263.5,65.3,263.5,135.4z M153.7,144.8c1.6-2.3,2.9-3.6,3.7-5.2c3-5.8,5.9-11.8,8.8-17.7c0.5-0.9,0.9-1.9,1.5-2.7
		c1.1-1.5,2.4-1.7,3.5-0.1c1,1.5,2,3.1,2.7,4.7c1.7,3.7,1.9,3.9,6.1,3.8c2.4,0,4.9-0.1,7.2,0.2c4.8,0.7,9.1-0.4,13-3.2
		c16.2-11.4,20.4-37.2,8.7-53.2c-14-19.1-40.2-21.4-57.3-4.9c-4.7,4.6-9.1,9.4-13.8,14.3c-4.5-4.7-8.3-8.9-12.3-12.9
		c-9.4-9.6-20.8-14.2-34.1-11.7C76.6,59,66.6,67.9,62,82.3c-4.5,14.2-1.1,27.1,9,37.7c14.3,15,29,29.5,43.6,44.2
		c9.6,9.7,19.3,19.2,28.7,29c8,8.4,7.7,21.6-0.5,29.8c-7.9,7.9-20.4,8.1-28.8,0.3c-5.5-5.1-10.7-10.6-16.1-15.9
		c-3.3-3.3-3.3-3.4-1.1-7.5c3.6-6.5,3-14.7-1.7-20.5c-4.7-6-12.1-8.6-19-6.7c-10.7,3-16.6,13.4-13.4,23.6
		c3.5,11.2,15.4,16,24.5,12.1c2.4-1,4.2-0.4,6,1.5c5.6,5.8,11.4,11.4,17.1,17.1c4.9,4.9,11,7.3,17.8,7.3c11.4-0.1,19.3-5.9,24.1-16
		c4.4-9.4,2.3-20.9-5.2-28.7c-12.1-12.5-24.5-24.8-36.7-37.2c-11.2-11.3-22.5-22.6-33.8-33.9c-11.7-11.7-13.8-25.3-8.2-38.8
		c8.2-20,35.1-25.4,51.6-10.3c5.2,4.7,10,9.9,14.9,14.8c2.9,2.9,3.7,2.9,6.6,0c4.8-4.8,9.5-9.8,14.5-14.6
		c12.7-12.3,33.8-11.9,45.7,0.7c13.5,14.4,12.1,36.8-3.2,49.4c-2.3,1.9-4.9,3.2-8,3.1c-2.7,0-5.4-0.3-8-0.3c-2.3,0.1-3.7-0.9-4.7-3
		c-1.6-3.4-3.3-6.7-5-10c-0.7-1.3-1.8-2.3-3.1-3.9c-1.3,1.9-2.5,3.2-3.2,4.7c-2.9,5.7-5.7,11.5-8.7,17.1c-0.9,1.7-2.5,3.1-3.7,4.7
		c-1.2-1.6-2.5-3.1-3.7-4.7c-1.3-1.8-2.4-3.6-4.1-6.1c-2.9,4.2-5.2,7.7-7.9,11.7c-1.5-2.2-2.7-3.6-3.5-5.2
		c-3.1-6.1-6.1-12.2-9.2-18.3c-0.6-1.2-1.8-2.1-2.8-3.2c-1.1,1.1-2.4,2-3.1,3.3c-1.7,2.8-3.1,5.8-4.5,8.8c-1.4,2.9-3.6,4.3-6.8,4.1
		c-2.8-0.1-5.5,0-8.3,0c-1.8,0-3.4,0.4-3.4,2.7c0,2.2,1.6,2.3,3.3,2.4c3.2,0.1,6.4,0.1,9.6,0.2c5.5,0.3,8.4-1.6,10.4-6.7
		c0.5-1.2,1.6-2.1,2.4-3.2c1,0.9,2.1,1.6,3,2.6c0.5,0.5,0.8,1.4,1.1,2c3.1,6.2,6.1,12.4,9.3,18.6c0.5,1,1.7,2.4,2.6,2.4
		c0.9,0,2-1.4,2.7-2.4c1.2-1.9,2-4,3.2-6c1.2-2,2.7-2,4-0.1c0.6,0.8,1,1.8,1.5,2.7C150.7,140,152,142.1,153.7,144.8z"/>
	<path class="st0" d="M67.3,190.3c0-7.5,6-13.4,13.6-13.4c7.5,0,13.3,5.9,13.4,13.6c0.1,7.3-5.9,13.4-13.3,13.4
		C73.4,204,67.3,198.1,67.3,190.3z"/>
</g>
</svg>
