<?xml version="1.0" encoding="utf-8"?>
<!-- Generator: Adobe Illustrator 26.0.1, SVG Export Plug-In . SVG Version: 6.00 Build 0)  -->
<svg version="1.1" id="Layer_1" xmlns="http://www.w3.org/2000/svg" xmlns:xlink="http://www.w3.org/1999/xlink" x="0px" y="0px"
	 viewBox="0 0 728 391" style="enable-background:new 0 0 728 391;" xml:space="preserve">
<style type="text/css">
	.st0{fill:#FFFFFF;}
</style>
<g>
	<g>
		<g>
			<path class="st0" d="M173.1,67.3c-42.8,12.4-70.6,32-82.5,58.2c-10.6,23.4-5.7,45.9-1.5,57.9c0.4,1.1,0.1,2.4-0.8,3.2
				C71.7,203,62.5,223,61.2,246c-0.8,13.4,1.1,26.9,4.6,40c0.1,0.3-0.2,0.6-0.5,0.4L21,260.9c-5-2.9-8.1-8.2-8.1-14V117.3
				c0-5.8,3.1-11.1,8.1-14l112.3-64.8c5-2.9,11.2-2.9,16.2,0l39.2,22.6c0.7,0.4,0.6,1.4-0.2,1.6C183.6,64.2,178.5,65.7,173.1,67.3z"
				/>
		</g>
		<g>
			<path class="st0" d="M269.7,118.1v128c0,6.3-3.4,12.1-8.8,15.2l-110.8,64c-5.4,3.1-12.1,3.1-17.6,0l-14.5-8.4
				c-0.4-0.2-0.6-0.6-0.7-1c-4.3-27.5-4.6-59,8.6-82.5c10.6-18.8,29.1-30.3,55-34.3c2.8-0.4,5.1-2.5,5.8-5.3l11.1-44
				c0.6-2.4-0.1-4.9-1.7-6.7c-1.4-1.4-3.2-2.2-5.2-2.2c-0.5,0-0.9,0-1.4,0.1c-16.7,3.3-31.9,7.5-45.5,12.4c-1.1,0.4-2.1-0.5-1.9-1.6
				c7-32.2,48.5-43.8,50.4-44.3c0.1,0,0.3-0.1,0.4-0.1c16.4-5.5,30.7-11.6,42.7-18.3c0.4-0.2,1-0.2,1.4,0l23.7,13.7
				C266.4,106,269.7,111.8,269.7,118.1z"/>
		</g>
		<g>
			<path class="st0" d="M190.9,100.7c100.4-33.6,85.7-79.5,80.8-89.9c2.9,7.6,4.4,34.1-96.6,63.4c-104.6,30.2-84.5,95.1-77.6,111.1
				c0.5,1.1,0.2,2.4-0.7,3.2c-79.1,71.1,30.7,191.8,30.7,191.8S58,212,178.5,192.3c0.8-0.1,1.5-0.7,1.7-1.6l10-39.4
				c0.4-1.5-1-2.9-2.5-2.6c-18.8,3.9-34.9,8.8-48.6,14.4c-2.4,1-5-0.8-4.9-3.4C135.5,115.4,190.9,100.7,190.9,100.7z"/>
		</g>
	</g>
	<g>
		<g>
			<path class="st0" d="M303.4,110.4h85.1V149h-45.4v22.4h41.3v38.7h-41.3v42.7h-39.7V110.4z"/>
		</g>
		<g>
			<path class="st0" d="M391.5,252.8l36.2-142.5h53.9l36.2,142.5h-41.1l-4.1-17.1h-36l-4.1,17.1H391.5z M464.6,201.1l-9.8-41.3
				l-9.8,41.3H464.6z"/>
		</g>
		<g>
			<path class="st0" d="M506.7,110.4h41.5l16.5,58.6l16.5-58.6h41.5l-27.9,97.7h-10.4v44.8h-39.7v-44.8h-10.2L506.7,110.4z"/>
		</g>
		<g>
			<path class="st0" d="M673.2,213.1h41.3v39.7h-60.7c-16.7,0-29.5-8.1-29.5-25c0-6.5,1.8-11.8,4.9-17.3l34-60.5h-34.8v-39.7h58
				c16.9,0,26.7,9,26.7,23.6c0,6.7-2,12.6-5.5,18.7L673.2,213.1z"/>
		</g>
	</g>
	<g>
		<g>
			<path class="st0" d="M325,285.3c-1.3-1.3-2.9-2.3-4.7-3.1c-1.8-0.7-3.7-1.1-5.8-1.1h-6.3h-1.5h-3.3v29h3.3h1.5h6.3
				c2.1,0,4-0.4,5.8-1.1c1.8-0.7,3.4-1.8,4.7-3.1c1.3-1.3,2.4-2.9,3.1-4.6c0.7-1.8,1.1-3.7,1.1-5.7c0-2.1-0.4-4-1.1-5.7
				C327.4,288.1,326.3,286.6,325,285.3z M323.1,300.9c-0.8,1.5-2,2.7-3.5,3.6c-1.5,0.9-3.3,1.3-5.2,1.3h-6.1v-20.3h6.1
				c2,0,3.7,0.4,5.2,1.3c1.5,0.9,2.7,2,3.5,3.6c0.9,1.5,1.3,3.3,1.3,5.3C324.3,297.6,323.9,299.4,323.1,300.9z"/>
		</g>
		<g>
			<path class="st0" d="M345.9,290.4c-0.8-0.4-1.7-0.5-2.7-0.5c-2.3,0-4,0.8-5.1,2.3c0,0.1-0.1,0.1-0.1,0.2v-2.1h-4.6v19.9h4.6
				v-11.1c0-1.7,0.4-3,1.2-3.8c0.8-0.8,1.9-1.2,3.2-1.2c0.6,0,1.1,0.1,1.5,0.2c0.4,0.2,0.8,0.4,1.2,0.8l3-3.1
				C347.5,291.3,346.7,290.7,345.9,290.4z"/>
		</g>
		<g>
			<rect x="350.4" y="290.2" class="st0" width="4.6" height="19.9"/>
		</g>
		<g>
			<path class="st0" d="M352.7,281.1c-0.8,0-1.4,0.3-1.9,0.8c-0.5,0.5-0.8,1.2-0.8,1.9c0,0.8,0.3,1.4,0.8,1.9
				c0.5,0.5,1.2,0.8,1.9,0.8c0.8,0,1.5-0.3,1.9-0.8c0.5-0.5,0.7-1.2,0.7-1.9c0-0.8-0.2-1.4-0.7-1.9
				C354.1,281.4,353.5,281.1,352.7,281.1z"/>
		</g>
		<g>
			<polygon class="st0" points="368.2,303 362.8,290.2 357.7,290.2 366.8,310.1 369.4,310.1 378.5,290.2 373.7,290.2 			"/>
		</g>
		<g>
			<rect x="381.3" y="290.2" class="st0" width="4.6" height="19.9"/>
		</g>
		<g>
			<path class="st0" d="M383.5,281.1c-0.8,0-1.4,0.3-1.9,0.8c-0.5,0.5-0.8,1.2-0.8,1.9c0,0.8,0.3,1.4,0.8,1.9
				c0.5,0.5,1.2,0.8,1.9,0.8c0.8,0,1.5-0.3,1.9-0.8c0.5-0.5,0.7-1.2,0.7-1.9c0-0.8-0.2-1.4-0.7-1.9
				C385,281.4,384.3,281.1,383.5,281.1z"/>
		</g>
		<g>
			<path class="st0" d="M405.4,291c-1.2-0.8-2.5-1.1-4-1.1c-1.5,0-2.8,0.3-4,1c-0.8,0.4-1.4,1-2,1.7v-2.3h-4.6v19.9h4.6v-11.5
				c0-0.9,0.2-1.7,0.6-2.4c0.4-0.7,0.9-1.2,1.6-1.6c0.7-0.4,1.5-0.6,2.4-0.6c1.3,0,2.4,0.4,3.3,1.3c0.8,0.9,1.3,1.9,1.3,3.3v11.5
				h4.6v-12.5c0-1.3-0.3-2.6-1-3.8C407.5,292.7,406.6,291.7,405.4,291z"/>
		</g>
		<g>
			<path class="st0" d="M428,292.3c-0.6-0.6-1.2-1.2-2-1.6c-1.2-0.6-2.6-1-4.1-1c-1.8,0-3.4,0.4-4.8,1.3c-1.4,0.9-2.5,2.1-3.4,3.5
				c-0.8,1.5-1.2,3.2-1.2,5.1c0,1.9,0.4,3.6,1.2,5.1c0.8,1.5,1.9,2.7,3.4,3.6c1.4,0.9,3,1.3,4.8,1.3c1.5,0,2.9-0.3,4.1-1
				c0.8-0.4,1.5-1,2-1.6v2.2c0,1.6-0.5,2.9-1.6,3.8c-1.1,0.9-2.5,1.4-4.3,1.4c-1.4,0-2.7-0.2-3.7-0.7c-1-0.5-1.9-1.2-2.7-2.2l-3,3
				c1,1.4,2.2,2.5,3.8,3.2c1.6,0.8,3.4,1.1,5.5,1.1c2.1,0,3.9-0.4,5.5-1.2c1.6-0.8,2.8-1.9,3.7-3.3c0.9-1.4,1.3-3.1,1.3-5v-19.1H428
				V292.3z M425.7,304.7c-0.8,0.5-1.8,0.7-2.9,0.7c-1.1,0-2.1-0.2-2.9-0.7c-0.8-0.5-1.5-1.1-2-2c-0.5-0.9-0.7-1.8-0.7-2.9
				c0-1.1,0.2-2.1,0.7-3c0.5-0.8,1.1-1.5,2-2c0.8-0.5,1.8-0.7,2.9-0.7c1.1,0,2.1,0.2,2.9,0.7c0.8,0.5,1.5,1.1,1.9,2
				c0.5,0.8,0.7,1.8,0.7,3c0,1.1-0.2,2.1-0.7,3C427.2,303.6,426.5,304.2,425.7,304.7z"/>
		</g>
		<g>
			<path class="st0" d="M468.1,285.3c-1.3-1.3-2.9-2.3-4.7-3.1c-1.8-0.7-3.7-1.1-5.8-1.1h-6.3h-1.5h-3.3v29h3.3h1.5h6.3
				c2.1,0,4-0.4,5.8-1.1c1.8-0.7,3.4-1.8,4.7-3.1c1.3-1.3,2.4-2.9,3.1-4.6c0.7-1.8,1.1-3.7,1.1-5.7c0-2.1-0.4-4-1.1-5.7
				C470.5,288.1,469.5,286.6,468.1,285.3z M466.2,300.9c-0.8,1.5-2,2.7-3.5,3.6c-1.5,0.9-3.3,1.3-5.2,1.3h-6.1v-20.3h6.1
				c2,0,3.7,0.4,5.2,1.3c1.5,0.9,2.7,2,3.5,3.6c0.9,1.5,1.3,3.3,1.3,5.3C467.5,297.6,467.1,299.4,466.2,300.9z"/>
		</g>
		<g>
			<rect x="476.7" y="290.2" class="st0" width="4.6" height="19.9"/>
		</g>
		<g>
			<path class="st0" d="M478.9,281.1c-0.8,0-1.4,0.3-1.9,0.8c-0.5,0.5-0.8,1.2-0.8,1.9c0,0.8,0.3,1.4,0.8,1.9
				c0.5,0.5,1.2,0.8,1.9,0.8c0.8,0,1.5-0.3,1.9-0.8c0.5-0.5,0.7-1.2,0.7-1.9c0-0.8-0.2-1.4-0.7-1.9
				C480.4,281.4,479.8,281.1,478.9,281.1z"/>
		</g>
		<g>
			<path class="st0" d="M500.6,292.3c-0.6-0.6-1.2-1.2-2-1.6c-1.2-0.6-2.6-1-4.1-1c-1.8,0-3.4,0.4-4.8,1.3c-1.4,0.9-2.5,2.1-3.4,3.5
				c-0.8,1.5-1.2,3.2-1.2,5.1c0,1.9,0.4,3.6,1.2,5.1c0.8,1.5,1.9,2.7,3.4,3.6c1.4,0.9,3,1.3,4.8,1.3c1.5,0,2.9-0.3,4.1-1
				c0.8-0.4,1.5-1,2-1.6v2.2c0,1.6-0.5,2.9-1.6,3.8c-1.1,0.9-2.5,1.4-4.3,1.4c-1.4,0-2.7-0.2-3.7-0.7c-1-0.5-1.9-1.2-2.7-2.2l-3,3
				c1,1.4,2.2,2.5,3.8,3.2c1.6,0.8,3.4,1.1,5.5,1.1c2.1,0,3.9-0.4,5.5-1.2c1.6-0.8,2.8-1.9,3.7-3.3c0.9-1.4,1.3-3.1,1.3-5v-19.1
				h-4.6V292.3z M498.2,304.7c-0.8,0.5-1.8,0.7-2.9,0.7c-1.1,0-2.1-0.2-2.9-0.7c-0.8-0.5-1.5-1.1-2-2c-0.5-0.9-0.7-1.8-0.7-2.9
				c0-1.1,0.2-2.1,0.7-3c0.5-0.8,1.1-1.5,2-2c0.8-0.5,1.8-0.7,2.9-0.7c1.1,0,2.1,0.2,2.9,0.7c0.8,0.5,1.5,1.1,1.9,2
				c0.5,0.8,0.7,1.8,0.7,3c0,1.1-0.2,2.1-0.7,3C499.7,303.6,499.1,304.2,498.2,304.7z"/>
		</g>
		<g>
			<path class="st0" d="M512.5,281.1c-0.8,0-1.4,0.3-1.9,0.8c-0.5,0.5-0.8,1.2-0.8,1.9c0,0.8,0.3,1.4,0.8,1.9
				c0.5,0.5,1.2,0.8,1.9,0.8c0.8,0,1.5-0.3,1.9-0.8c0.5-0.5,0.7-1.2,0.7-1.9c0-0.8-0.2-1.4-0.7-1.9
				C514,281.4,513.3,281.1,512.5,281.1z"/>
		</g>
		<g>
			<rect x="510.2" y="290.2" class="st0" width="4.6" height="19.9"/>
		</g>
		<g>
			<polygon class="st0" points="527.5,281.9 522.9,281.9 522.9,290.2 518.1,290.2 518.1,294.4 522.9,294.4 522.9,310.1 527.5,310.1 
				527.5,294.4 532.3,294.4 532.3,290.2 527.5,290.2 			"/>
		</g>
		<g>
			<path class="st0" d="M549.4,292.5c-0.6-0.7-1.3-1.2-2.1-1.7c-1.2-0.6-2.5-1-4-1c-1.8,0-3.4,0.5-4.9,1.4c-1.5,0.9-2.6,2.2-3.4,3.7
				c-0.8,1.6-1.3,3.3-1.3,5.3c0,1.9,0.4,3.7,1.3,5.2c0.8,1.6,2,2.8,3.4,3.7c1.5,0.9,3.1,1.4,4.9,1.4c1.5,0,2.9-0.3,4.1-1
				c0.8-0.4,1.5-1,2-1.6v2.2h4.6v-19.9h-4.6V292.5z M548.2,304.5c-1,1.1-2.4,1.7-4.1,1.7c-1.1,0-2.1-0.3-2.9-0.8
				c-0.8-0.5-1.5-1.2-2-2.1c-0.5-0.9-0.7-2-0.7-3.2c0-1.2,0.2-2.2,0.7-3.2c0.5-0.9,1.1-1.6,2-2.1c0.8-0.5,1.8-0.8,2.9-0.8
				c1.1,0,2.1,0.3,3,0.8c0.8,0.5,1.5,1.2,2,2.1c0.5,0.9,0.7,2,0.7,3.2C549.7,302,549.2,303.4,548.2,304.5z"/>
		</g>
		<g>
			<rect x="559" y="280.3" class="st0" width="4.6" height="29.9"/>
		</g>
		<g>
			<path class="st0" d="M593.2,295.7c-0.8-0.6-1.7-1.2-2.7-1.6c-1-0.4-2-0.8-2.9-1.1c-1-0.3-1.9-0.7-2.7-1.1c-0.8-0.4-1.5-0.8-2-1.4
				c-0.5-0.5-0.7-1.3-0.7-2.1c0-1.1,0.4-1.9,1.2-2.4c0.8-0.6,1.9-0.9,3.4-0.9c1.2,0,2.2,0.2,3.1,0.7c0.9,0.5,1.8,1.2,2.6,2.1
				l3.2-3.2c-0.9-1.2-2.2-2.1-3.7-2.9c-1.5-0.7-3.2-1.1-5.1-1.1c-1.8,0-3.4,0.3-4.8,1c-1.4,0.6-2.6,1.6-3.4,2.8
				c-0.8,1.2-1.3,2.7-1.3,4.4c0,1.5,0.2,2.7,0.7,3.7c0.5,1,1.2,1.8,2,2.4c0.8,0.6,1.7,1.1,2.7,1.5c1,0.4,2,0.8,2.9,1.1
				c1,0.3,1.9,0.7,2.7,1.1c0.8,0.4,1.5,0.9,2,1.5c0.5,0.6,0.7,1.4,0.7,2.4c0,1.2-0.5,2.1-1.4,2.7c-1,0.7-2.2,1-3.8,1
				c-1.7,0-3.1-0.3-4.2-1c-1.1-0.6-2.1-1.6-2.9-2.7l-3.2,3.2c1.3,1.6,2.7,2.8,4.3,3.7c1.6,0.8,3.6,1.2,5.8,1.2
				c3.1,0,5.6-0.8,7.4-2.3c1.8-1.5,2.8-3.6,2.8-6.2c0-1.5-0.2-2.8-0.7-3.9C594.6,297.2,594,296.4,593.2,295.7z"/>
		</g>
		<g>
			<path class="st0" d="M612.3,301.6c0,1.5-0.4,2.6-1.1,3.4s-1.7,1.2-3,1.2c-0.9,0-1.6-0.2-2.2-0.5c-0.6-0.4-1.1-0.9-1.4-1.6
				c-0.3-0.7-0.5-1.5-0.5-2.5v-11.4h-4.6v11.6c0,1.7,0.4,3.2,1.1,4.5c0.7,1.3,1.8,2.3,3.1,3.1c1.3,0.7,2.8,1.1,4.5,1.1
				c1.7,0,3.2-0.4,4.5-1.1c1.3-0.7,2.3-1.8,3-3.1c0.7-1.3,1.1-2.8,1.1-4.6v-11.6h-4.6V301.6z"/>
		</g>
		<g>
			<path class="st0" d="M627.6,295c0.9-0.5,1.9-0.8,3-0.8c1,0,1.9,0.2,2.7,0.5c0.8,0.3,1.5,0.9,2.1,1.6l3-3c-0.9-1.1-2.1-2-3.4-2.6
				c-1.3-0.6-2.8-0.9-4.3-0.9c-2,0-3.7,0.5-5.3,1.4c-1.6,0.9-2.8,2.2-3.8,3.7c-0.9,1.6-1.4,3.3-1.4,5.3c0,1.9,0.5,3.7,1.4,5.3
				c0.9,1.6,2.2,2.8,3.8,3.7c1.6,0.9,3.4,1.4,5.3,1.4c1.5,0,3-0.3,4.3-0.9c1.3-0.6,2.5-1.4,3.4-2.6l-3-3c-0.6,0.7-1.3,1.2-2.1,1.6
				c-0.8,0.3-1.7,0.5-2.7,0.5c-1.1,0-2.1-0.3-3-0.8c-0.9-0.5-1.5-1.2-2-2.1c-0.5-0.9-0.7-1.9-0.7-3.1c0-1.2,0.2-2.2,0.7-3.1
				C626.1,296.2,626.8,295.5,627.6,295z"/>
		</g>
		<g>
			<path class="st0" d="M647.4,295c0.9-0.5,1.9-0.8,3-0.8c1,0,1.9,0.2,2.7,0.5c0.8,0.3,1.5,0.9,2.1,1.6l3-3c-0.9-1.1-2.1-2-3.4-2.6
				c-1.3-0.6-2.8-0.9-4.3-0.9c-2,0-3.7,0.5-5.3,1.4c-1.6,0.9-2.8,2.2-3.8,3.7c-0.9,1.6-1.4,3.3-1.4,5.3c0,1.9,0.5,3.7,1.4,5.3
				c0.9,1.6,2.2,2.8,3.8,3.7c1.6,0.9,3.4,1.4,5.3,1.4c1.5,0,3-0.3,4.3-0.9c1.3-0.6,2.5-1.4,3.4-2.6l-3-3c-0.6,0.7-1.3,1.2-2.1,1.6
				c-0.8,0.3-1.7,0.5-2.7,0.5c-1.1,0-2.1-0.3-3-0.8c-0.9-0.5-1.5-1.2-2-2.1c-0.5-0.9-0.7-1.9-0.7-3.1c0-1.2,0.2-2.2,0.7-3.1
				C645.9,296.2,646.6,295.5,647.4,295z"/>
		</g>
		<g>
			<path class="st0" d="M675,291.1c-1.4-0.9-3.1-1.3-4.9-1.3c-1.9,0-3.6,0.5-5.2,1.4c-1.6,0.9-2.8,2.2-3.7,3.7
				c-0.9,1.6-1.4,3.3-1.4,5.3s0.5,3.7,1.4,5.3c0.9,1.6,2.2,2.8,3.8,3.7c1.6,0.9,3.4,1.3,5.4,1.3c1.5,0,3-0.3,4.4-0.9
				c1.4-0.6,2.6-1.4,3.5-2.6l-2.9-2.9c-0.6,0.7-1.3,1.2-2.2,1.6c-0.9,0.4-1.8,0.5-2.8,0.5c-1.2,0-2.2-0.3-3.2-0.8
				c-0.9-0.5-1.6-1.2-2.1-2.2c-0.2-0.4-0.4-0.9-0.5-1.5h14.8c0.1-0.4,0.1-0.8,0.2-1.1c0-0.3,0.1-0.7,0.1-1c0-1.9-0.4-3.6-1.2-5.1
				C677.5,293.1,676.4,292,675,291.1z M665,296.8c0.5-0.9,1.1-1.6,2-2.1c0.9-0.5,1.9-0.7,3-0.7c1.1,0,2,0.2,2.8,0.7
				c0.8,0.4,1.3,1.1,1.8,1.9c0.2,0.5,0.4,1,0.5,1.6h-10.6C664.6,297.7,664.7,297.2,665,296.8z"/>
		</g>
		<g>
			<path class="st0" d="M687.7,294.4c0.5-0.3,1.2-0.4,2.1-0.4c1,0,1.8,0.2,2.6,0.5c0.7,0.4,1.4,0.9,2,1.6l2.9-2.9
				c-0.8-1.1-1.9-2-3.1-2.6c-1.2-0.6-2.6-0.9-4.3-0.9c-1.5,0-2.8,0.2-3.9,0.7c-1.1,0.5-1.9,1.2-2.5,2.1c-0.6,0.9-0.9,2-0.9,3.3
				c0,1.2,0.2,2.2,0.7,2.9s1.1,1.3,1.9,1.8c0.8,0.4,1.6,0.8,2.5,1c0.9,0.2,1.7,0.5,2.5,0.7c0.8,0.2,1.4,0.5,1.9,0.9
				c0.5,0.3,0.7,0.8,0.7,1.4c0,0.6-0.3,1-0.8,1.3c-0.5,0.3-1.3,0.5-2.3,0.5c-1.1,0-2.2-0.2-3-0.6c-0.9-0.4-1.7-1-2.4-1.8l-2.9,2.9
				c0.6,0.8,1.4,1.4,2.2,2c0.9,0.5,1.8,1,2.8,1.2c1,0.3,2.1,0.4,3.2,0.4c2.3,0,4.2-0.6,5.5-1.7c1.4-1.1,2-2.7,2-4.6
				c0-1.2-0.2-2.2-0.7-3c-0.5-0.8-1.1-1.4-1.9-1.8s-1.6-0.8-2.5-1.1c-0.9-0.3-1.7-0.5-2.5-0.7c-0.8-0.2-1.4-0.5-1.9-0.8
				c-0.5-0.3-0.7-0.7-0.7-1.3C686.9,295.1,687.2,294.7,687.7,294.4z"/>
		</g>
		<g>
			<path class="st0" d="M712.4,299.5c-0.8-0.5-1.6-0.8-2.5-1.1c-0.9-0.3-1.7-0.5-2.5-0.7c-0.8-0.2-1.4-0.5-1.9-0.8
				c-0.5-0.3-0.7-0.7-0.7-1.3c0-0.5,0.2-0.9,0.7-1.2c0.5-0.3,1.2-0.4,2.1-0.4c1,0,1.8,0.2,2.6,0.5c0.7,0.4,1.4,0.9,2,1.6l2.9-2.9
				c-0.8-1.1-1.9-2-3.1-2.6c-1.2-0.6-2.6-0.9-4.3-0.9c-1.5,0-2.8,0.2-3.9,0.7c-1.1,0.5-1.9,1.2-2.5,2.1c-0.6,0.9-0.9,2-0.9,3.3
				c0,1.2,0.2,2.2,0.7,2.9c0.5,0.7,1.1,1.3,1.9,1.8c0.8,0.4,1.6,0.8,2.5,1c0.9,0.2,1.7,0.5,2.5,0.7c0.8,0.2,1.4,0.5,1.9,0.9
				c0.5,0.3,0.7,0.8,0.7,1.4c0,0.6-0.3,1-0.8,1.3c-0.5,0.3-1.3,0.5-2.3,0.5c-1.1,0-2.2-0.2-3-0.6c-0.9-0.4-1.7-1-2.4-1.8l-2.9,2.9
				c0.6,0.8,1.4,1.4,2.2,2c0.9,0.5,1.8,1,2.8,1.2c1,0.3,2.1,0.4,3.2,0.4c2.3,0,4.2-0.6,5.5-1.7c1.4-1.1,2-2.7,2-4.6
				c0-1.2-0.2-2.2-0.7-3C713.9,300.5,713.2,299.9,712.4,299.5z"/>
		</g>
	</g>
	<g>
		<rect x="303.4" y="264.7" class="st0" width="411.2" height="4.2"/>
	</g>
</g>
</svg>
