<?xml version="1.0" encoding="utf-8"?>
<!-- Generator: Adobe Illustrator 26.0.1, SVG Export Plug-In . SVG Version: 6.00 Build 0)  -->
<svg version="1.1" id="Layer_1" xmlns="http://www.w3.org/2000/svg" xmlns:xlink="http://www.w3.org/1999/xlink" x="0px" y="0px"
	 viewBox="0 0 836.2 235.9" style="enable-background:new 0 0 836.2 235.9;" xml:space="preserve">
<style type="text/css">
	.st0{fill:#FFFFFF;}
</style>
<g>
	<path class="st0" d="M222.7,188.7c-11.1-1.7-21.3-7.4-28.6-16.1c0,0,0,0,0,0c-0.1-0.1-0.1-0.2-0.2-0.2c0.8-1.1,1.6-2.3,2.4-3.5
		c4.8-7.2,8.8-15,11.6-23.5c0-0.1,0-0.1,0.1-0.2c0.1-0.3,0.2-0.6,0.3-0.9c0,0,0,0,0,0c3.3-10.1,5-20.6,5-31.5
		c0-55.9-45.3-101.4-100.9-101.4S11.3,56.9,11.3,112.8c0,23.2,8,45.9,22.6,63.9c11.9,14.7,28.1,25.9,45.9,32.1
		c6.5,2.9,13.9,4.9,22.1,5.7c2,0.2,4,0.4,6.1,0.4c0.7,0,1.4,0,2.1,0h0.2c0.6,0,1.2,0,1.8,0c22.5-0.3,45.4-9,63.7-23.9c0,0,0,0,0,0
		c0.1,0.1,0.2,0.2,0.3,0.3c11.2,12.2,26.2,20.3,42.6,22.8c0.7,0.1,1.3,0.1,2,0.1c3.4,0,6.6-1.3,9.1-3.7c2.5-2.4,3.8-5.7,3.8-9.2
		C233.7,195,229,189.6,222.7,188.7z M147.5,180.6C147.5,180.6,147.4,180.6,147.5,180.6c-4.5,2.2-9,3.9-13.7,5.3c0,0,0,0-0.1,0
		c-6.9,2-14,3.1-21.2,3.3c-0.3,0-0.7,0-1,0h-0.1c-0.1,0-0.2,0-0.3,0c-0.3,0-0.6,0-0.8,0c-0.4,0-0.8,0-1.2,0h0c-0.1,0-0.1,0-0.2,0
		c-1.8-0.1-3.6-0.2-5.3-0.5c0,0,0,0-0.1,0c-1.2-0.2-2.4-0.4-3.6-0.7c0,0,0,0,0,0c-4.3-1-8.4-2.6-12.1-4.7c0,0,0,0,0,0
		c-14.5-8.1-24.3-23.6-24.3-41.1c0-25.9,21.1-47,47-47c25.9,0,47,21.1,47,47c0,9.4,1.7,18.5,5.2,27c0.1,0.3,0.2,0.5,0.3,0.8
		c0,0,0,0.1,0,0.1c-4.2,3.7-8.8,6.9-13.8,9.6C148.4,180.1,148,180.3,147.5,180.6z M112.2,35.6c42.3,0,76.8,34.6,76.8,77.2
		c0,10.4-2.1,20.7-6.1,30.2c0-0.2,0-0.5,0-0.7c0-0.3,0-0.6,0-0.8c0-0.6,0-1.3,0-1.9v0c-1.5-38.8-33.5-70-72.7-70
		c-0.9,0-1.9,0-2.8,0.1c-13.6,0.5-26.5,4.8-37.6,12.2c-0.2,0.1-0.3,0.2-0.5,0.3c-4.3,2.9-8.3,6.3-11.9,10.2
		c-10.4,10.9-17,24.5-19.2,39.1c0,0,0,0.1,0,0.1c-0.1,0.4-0.1,0.9-0.2,1.3c-1.7-6.5-2.6-13.2-2.6-20C35.4,70.2,69.9,35.6,112.2,35.6
		z"/>
	<path class="st0" d="M361.3,104.1c0-9.6-1.6-18.5-4.8-26.5c-3.2-8-7.8-15.1-13.6-21c-5.8-5.9-12.8-10.5-20.8-13.8
		c-8-3.2-16.8-4.9-26.4-4.9c-9.6,0-18.5,1.6-26.5,4.9c-8,3.2-15,7.9-20.8,13.8c-5.8,5.9-10.3,12.9-13.5,21c-3.2,8-4.8,16.9-4.8,26.5
		c0,9.6,1.6,18.5,4.8,26.5c3.2,8.1,7.7,15.2,13.5,21c5.8,5.9,12.8,10.5,20.8,13.8c8,3.2,16.9,4.9,26.5,4.9c9.6,0,18.5-1.6,26.4-4.9
		c8-3.2,15-7.9,20.8-13.8c5.8-5.9,10.4-13,13.6-21.1C359.7,122.6,361.3,113.6,361.3,104.1z M334.5,121.3c-2,5.2-4.9,9.8-8.6,13.7
		c-3.7,3.9-8.2,6.9-13.3,9.1c-5.1,2.2-10.8,3.3-16.9,3.3c-6.1,0-11.8-1.1-16.9-3.3c-5.1-2.2-9.5-5.3-13.2-9.1
		c-3.7-3.9-6.6-8.5-8.7-13.8c-2.1-5.3-3.1-11.1-3.1-17.2c0-6.2,1-12,3.1-17.2c2.1-5.3,5-9.9,8.7-13.8c3.7-3.8,8.1-6.9,13.2-9
		c5.1-2.1,10.8-3.2,16.9-3.2c6.1,0,11.8,1.1,16.9,3.2c5.1,2.1,9.5,5.2,13.3,9c3.7,3.9,6.6,8.5,8.6,13.7c2,5.3,3.1,11.1,3.1,17.3
		C337.5,110.2,336.5,116,334.5,121.3z"/>
	<path class="st0" d="M484.1,51.7c0-3.5-1.1-6.4-3.3-8.7c-2.2-2.3-5.2-3.5-8.7-3.5c-3.3,0-6.3,1.2-8.6,3.4c-2.3,2.3-3.6,5.3-3.6,8.8
		v72.3l-60.1-80l-0.1-0.1c-2.4-2.9-5.7-4.4-9.4-4.4c-3.3,0-6.3,1.2-8.6,3.5c-2.3,2.3-3.5,5.3-3.5,8.7v104.8c0,3.3,1.2,6.3,3.4,8.6
		c2.3,2.3,5.2,3.6,8.6,3.6c3.5,0,6.5-1.2,8.8-3.6c2.2-2.3,3.4-5.3,3.4-8.6V84.4l60.1,80c1.2,1.5,2.7,2.7,4.6,3.4
		c1.7,0.7,3.3,1,4.8,1c3.5,0,6.5-1.3,8.8-3.6c2.2-2.3,3.3-5.2,3.3-8.5V51.7z"/>
	<path class="st0" d="M586.3,165.3c1.8-2,2.9-4.5,3.2-7.4c0.3-3-0.5-5.9-2.3-8.5l-38.2-52l37.1-37.2c2.2-2.4,3.6-5.1,4-8
		c0.5-3.2-0.2-6.1-2-8.5c-1.3-1.8-4-4-8.9-4c-1.7,0-3.4,0.4-4.9,1.1c-1.5,0.7-3,1.8-4.6,3.4l-44.2,44.2V51.7c0-3.3-1.2-6.3-3.5-8.7
		c-2.3-2.3-5.3-3.5-8.7-3.5c-3.2,0-6.2,1.2-8.5,3.5c-2.4,2.3-3.7,5.3-3.7,8.7v104.8c0,3.4,1.3,6.4,3.7,8.7c2.4,2.3,5.3,3.5,8.5,3.5
		c3.3,0,6.3-1.2,8.7-3.5c2.3-2.3,3.5-5.3,3.5-8.7V121l6.5-6.5l36.3,49.2c2.3,3.4,5.8,5.1,10,5.1
		C581.5,168.8,584.3,167.5,586.3,165.3z"/>
	<path class="st0" d="M717.4,165.8c2.2-3.4,2.5-7.4,0.9-11.6L674.7,50c-2-5.2-6-8-11.4-8c-5.2,0-9.2,2.8-11.4,8l-43.5,103.9
		c-1.8,4-1.5,8.1,0.8,11.7c2.3,3.7,5.8,5.7,10.2,5.7c2.2,0,4.3-0.6,6.4-1.8c2.1-1.3,3.8-3.2,4.9-5.6l7.9-19.2h49.9l7.7,19.1
		c0.9,2.4,2.5,4.3,4.7,5.6c2.1,1.3,4.3,2,6.6,2C711.6,171.2,715.2,169.4,717.4,165.8z M647.2,123l16.3-39.9l16.1,39.9H647.2z"/>
	<path class="st0" d="M807.1,167.4c1.8,0.9,3.7,1.4,5.9,1.4c4.8,0,8.6-2.2,10.7-6.2c1.4-2.7,2.4-7.1-0.9-12.5l-21.3-34.3
		c5.6-3.3,10-7.7,13.3-13.1c3.7-6.1,5.6-13.1,5.6-20.9c0-8.2-1.9-15.6-5.6-21.9c-3.7-6.3-9-11.3-15.6-14.9
		c-6.6-3.6-14.2-5.4-22.6-5.4h-27.9c-3.3,0-6.3,1.2-8.6,3.4c-2.3,2.3-3.6,5.3-3.6,8.8v104.8c0,3.3,1.2,6.3,3.5,8.7
		c2.3,2.3,5.3,3.5,8.7,3.5c3.5,0,6.5-1.2,8.8-3.6c2.2-2.3,3.4-5.3,3.4-8.6v-34.4h15.7c0.2,0,0.4,0,0.6,0l25.3,40.8
		C803.7,164.9,805.2,166.4,807.1,167.4z M794.1,90.6c-1.7,2.6-3.9,4.6-6.9,6.1c-3,1.5-6.6,2.3-10.7,2.3h-15.7V62.7h15.7
		c4,0,7.6,0.8,10.6,2.4c3,1.6,5.2,3.8,6.9,6.7c1.7,2.9,2.5,6.2,2.5,10C796.6,85.1,795.8,88,794.1,90.6z"/>
	<path class="st0" d="M316.9,182.1h-9.1h-4.4h-9.1c-0.6,0-1.1,0.2-1.5,0.6c-0.4,0.4-0.6,0.9-0.6,1.5c0,0.6,0.2,1.1,0.6,1.5
		c0.4,0.4,0.9,0.6,1.5,0.6h9.1v26.7c0,0.6,0.2,1.1,0.6,1.6c0.4,0.4,0.9,0.6,1.6,0.6c0.6,0,1.1-0.2,1.6-0.6c0.4-0.4,0.6-0.9,0.6-1.6
		v-26.7h9.1c0.6,0,1.1-0.2,1.5-0.6c0.4-0.4,0.6-0.9,0.6-1.5c0-0.6-0.2-1.1-0.6-1.5C317.9,182.2,317.4,182.1,316.9,182.1z"/>
	<path class="st0" d="M337,193.2c-1.6-1-3.5-1.5-5.6-1.5c-2.2,0-4.2,0.5-5.9,1.5c-1.7,1-3.1,2.4-4,4.1c-1,1.8-1.5,3.8-1.5,6.1
		c0,2.3,0.5,4.3,1.5,6c1,1.8,2.4,3.1,4.3,4.1c1.8,1,3.9,1.5,6.2,1.5c1.3,0,2.6-0.2,4.1-0.7c1.4-0.5,2.6-1.1,3.6-1.9
		c0.5-0.4,0.7-0.8,0.7-1.3c0-0.5-0.3-1-0.8-1.4c-0.4-0.3-0.8-0.5-1.3-0.4c-0.5,0-0.9,0.2-1.4,0.5c-0.6,0.4-1.3,0.8-2.2,1.1
		c-0.9,0.3-1.8,0.5-2.7,0.5c-1.6,0-3-0.4-4.3-1.1c-1.2-0.7-2.2-1.7-2.9-2.9c-0.5-0.8-0.8-1.7-0.9-2.7h16c0.6,0,1-0.2,1.4-0.5
		c0.4-0.4,0.5-0.8,0.5-1.3c0-2.2-0.4-4.2-1.2-5.9C339.8,195.5,338.6,194.2,337,193.2z M327.3,196.4c1.1-0.7,2.5-1.1,4.1-1.1
		c1.4,0,2.6,0.3,3.6,1c1,0.6,1.7,1.5,2.3,2.6c0.4,0.8,0.6,1.7,0.7,2.6h-14c0.1-0.8,0.4-1.6,0.7-2.3
		C325.3,198.1,326.2,197.1,327.3,196.4z"/>
	<path class="st0" d="M365.5,192.7c-1.4-0.6-2.9-0.9-4.6-0.9c-2.2,0-4.2,0.5-5.9,1.5c-1.7,1-3.1,2.4-4,4.2c-1,1.8-1.5,3.8-1.5,6.1
		c0,2.2,0.5,4.2,1.5,6c1,1.8,2.4,3.1,4.1,4.2c1.8,1,3.8,1.5,6,1.5c3,0,5.6-0.9,7.6-2.8c0.4-0.4,0.6-0.8,0.5-1.3
		c-0.1-0.5-0.3-0.9-0.8-1.3c-0.4-0.3-0.8-0.4-1.3-0.4c-0.5,0-0.9,0.2-1.4,0.6c-0.6,0.5-1.3,0.9-2,1.1c-0.7,0.2-1.6,0.4-2.6,0.4
		c-1.5,0-2.8-0.3-3.9-1c-1.1-0.7-2-1.6-2.6-2.8c-0.6-1.2-0.9-2.5-0.9-4c0-1.6,0.3-3,0.9-4.2c0.6-1.2,1.5-2.1,2.6-2.8
		c1.1-0.7,2.4-1,3.8-1c2.1,0,3.8,0.7,5.1,2.2c0.4,0.4,0.8,0.6,1.3,0.7c0.5,0.1,0.9,0,1.3-0.3c0.5-0.4,0.8-0.8,0.9-1.3
		c0.1-0.5,0-0.9-0.4-1.4C368.2,194.3,366.9,193.3,365.5,192.7z"/>
	<path class="st0" d="M397,193c-1.5-0.8-3.3-1.2-5.2-1.2c-1.9,0-3.5,0.4-5,1.2c-0.8,0.4-1.5,1-2.1,1.6v-0.5v-9.9
		c0-0.6-0.2-1.2-0.6-1.6c-0.4-0.4-0.9-0.6-1.6-0.6c-0.6,0-1.1,0.2-1.5,0.6c-0.4,0.4-0.6,0.9-0.6,1.6v9.9v10.4v8.4
		c0,0.6,0.2,1.1,0.6,1.5c0.4,0.4,0.9,0.6,1.5,0.6c0.6,0,1.2-0.2,1.6-0.6c0.4-0.4,0.6-0.9,0.6-1.5v-8.4V201c0-1,0.3-2,0.8-2.8
		c0.6-0.8,1.3-1.4,2.3-1.9c1-0.5,2-0.7,3.2-0.7c1.3,0,2.4,0.2,3.4,0.7c1,0.5,1.8,1.2,2.4,2.3c0.6,1,0.9,2.3,0.9,3.9v10.4
		c0,0.6,0.2,1.1,0.6,1.5c0.4,0.4,0.9,0.6,1.5,0.6c0.6,0,1.1-0.2,1.5-0.6c0.4-0.4,0.6-0.9,0.6-1.5v-10.4c0-2.3-0.4-4.3-1.3-5.9
		C399.7,195,398.5,193.8,397,193z"/>
	<path class="st0" d="M433,193c-1.5-0.8-3.3-1.2-5.2-1.2c-1.9,0-3.5,0.4-5,1.2c-0.8,0.4-1.5,1-2.1,1.6v-0.5c0-0.6-0.2-1.2-0.6-1.6
		c-0.4-0.4-0.9-0.6-1.6-0.6c-0.6,0-1.1,0.2-1.5,0.6c-0.4,0.4-0.6,0.9-0.6,1.6v18.8c0,0.6,0.2,1.1,0.6,1.5c0.4,0.4,0.9,0.6,1.5,0.6
		c0.6,0,1.2-0.2,1.6-0.6c0.4-0.4,0.6-0.9,0.6-1.5V201c0-1,0.3-2,0.8-2.8c0.6-0.8,1.3-1.4,2.3-1.9c1-0.5,2-0.7,3.2-0.7
		c1.3,0,2.4,0.2,3.4,0.7c1,0.5,1.8,1.2,2.4,2.3c0.6,1,0.9,2.3,0.9,3.9v10.4c0,0.6,0.2,1.1,0.6,1.5c0.4,0.4,0.9,0.6,1.5,0.6
		c0.6,0,1.1-0.2,1.5-0.6c0.4-0.4,0.6-0.9,0.6-1.5v-10.4c0-2.3-0.4-4.3-1.3-5.9C435.7,195,434.5,193.8,433,193z"/>
	<path class="st0" d="M465.7,193.2c-1.7-1-3.7-1.5-6-1.5c-2.3,0-4.3,0.5-6,1.5c-1.7,1-3.1,2.4-4.1,4.1c-1,1.8-1.5,3.8-1.5,6.1
		c0,2.3,0.5,4.3,1.5,6c1,1.8,2.4,3.1,4.1,4.1c1.7,1,3.8,1.5,6,1.5c2.3,0,4.3-0.5,6-1.5c1.7-1,3.1-2.4,4.1-4.1c1-1.8,1.5-3.8,1.5-6
		c0-2.3-0.5-4.3-1.5-6.1C468.8,195.6,467.4,194.2,465.7,193.2z M466.2,207.6c-0.6,1.2-1.5,2.1-2.6,2.8c-1.1,0.7-2.4,1-3.9,1
		c-1.5,0-2.8-0.3-3.9-1c-1.1-0.7-2-1.6-2.7-2.8c-0.6-1.2-1-2.5-1-4.1c0-1.5,0.3-2.9,1-4.1c0.6-1.2,1.5-2.1,2.7-2.8
		c1.1-0.7,2.4-1,3.9-1c1.5,0,2.8,0.3,3.9,1c1.1,0.7,2,1.6,2.6,2.8c0.6,1.2,0.9,2.6,0.9,4.1C467.2,205,466.9,206.4,466.2,207.6z"/>
	<path class="st0" d="M488.5,210.8h-1.1c-0.6,0-1.1-0.3-1.5-1s-0.6-1.5-0.6-2.6v-23c0-0.6-0.2-1.1-0.6-1.5c-0.4-0.4-0.9-0.6-1.5-0.6
		c-0.6,0-1.1,0.2-1.5,0.6c-0.4,0.4-0.6,0.9-0.6,1.5v23c0,1.5,0.3,2.9,0.8,4c0.5,1.2,1.3,2.1,2.2,2.8c1,0.7,2.1,1,3.3,1h0.1
		c0.8,0,1.5-0.2,2.1-0.6c0.5-0.4,0.8-0.9,0.8-1.5c0-0.6-0.2-1.1-0.5-1.5C489.5,211,489,210.8,488.5,210.8z"/>
	<path class="st0" d="M546.6,193.2c-1.7-1-3.7-1.5-6-1.5c-2.3,0-4.3,0.5-6,1.5c-1.7,1-3.1,2.4-4.1,4.1c-1,1.8-1.5,3.8-1.5,6.1
		c0,2.3,0.5,4.3,1.4,6c0.9,1.8,2.2,3.1,3.8,4.1c1.6,1,3.5,1.5,5.6,1.5c1.9,0,3.7-0.5,5.1-1.5c1.3-0.9,2.3-2,3.2-3.5v2.1
		c0,1.8-0.3,3.4-1,4.6c-0.7,1.3-1.6,2.2-2.7,2.9c-1.1,0.6-2.4,1-3.7,1c-1.5,0-2.8-0.3-3.9-0.8c-1.2-0.5-2.1-1.3-2.9-2.2
		c-0.3-0.4-0.8-0.7-1.3-0.8c-0.5-0.1-1.1,0-1.6,0.3c-0.4,0.3-0.7,0.7-0.8,1.2c-0.1,0.5,0,1,0.4,1.5c1.2,1.5,2.7,2.7,4.4,3.5
		c1.7,0.8,3.6,1.2,5.6,1.2c2.3,0,4.3-0.5,6.1-1.6c1.8-1.1,3.1-2.5,4.1-4.3c1-1.8,1.5-3.8,1.5-6v-9.1c0-2.3-0.5-4.3-1.5-6.1
		C549.7,195.6,548.4,194.2,546.6,193.2z M544.5,210.3c-1.1,0.7-2.4,1-3.9,1c-1.5,0-2.8-0.3-3.9-1c-1.1-0.7-2-1.6-2.7-2.8
		c-0.6-1.2-1-2.5-1-4.1c0-1.5,0.3-2.9,1-4.1c0.6-1.2,1.5-2.1,2.7-2.8c1.1-0.7,2.4-1,3.9-1c1.5,0,2.8,0.3,3.9,1
		c1.1,0.7,2,1.6,2.6,2.8c0.6,1.2,0.9,2.6,0.9,4.1c0,1.5-0.3,2.9-0.9,4.1C546.5,208.7,545.6,209.7,544.5,210.3z"/>
	<path class="st0" d="M515.7,193.2c-1.7-1-3.7-1.5-6-1.5c-2.3,0-4.3,0.5-6,1.5c-1.7,1-3.1,2.4-4.1,4.1c-1,1.8-1.5,3.8-1.5,6.1
		c0,2.3,0.5,4.3,1.5,6c1,1.8,2.4,3.1,4.1,4.1c1.7,1,3.8,1.5,6,1.5c2.3,0,4.3-0.5,6-1.5c1.7-1,3.1-2.4,4.1-4.1c1-1.8,1.5-3.8,1.5-6
		c0-2.3-0.5-4.3-1.5-6.1C518.8,195.6,517.4,194.2,515.7,193.2z M516.2,207.6c-0.6,1.2-1.5,2.1-2.6,2.8c-1.1,0.7-2.4,1-3.9,1
		c-1.5,0-2.8-0.3-3.9-1c-1.1-0.7-2-1.6-2.7-2.8c-0.6-1.2-1-2.5-1-4.1c0-1.5,0.3-2.9,1-4.1c0.6-1.2,1.5-2.1,2.7-2.8
		c1.1-0.7,2.4-1,3.9-1c1.5,0,2.8,0.3,3.9,1c1.1,0.7,2,1.6,2.6,2.8c0.6,1.2,0.9,2.6,0.9,4.1C517.2,205,516.8,206.4,516.2,207.6z"/>
	<path class="st0" d="M565.4,182.6c-0.8,0-1.4,0.3-2,0.8c-0.5,0.5-0.8,1.2-0.8,2c0,0.8,0.3,1.4,0.8,2c0.5,0.5,1.2,0.8,2,0.8
		c0.8,0,1.4-0.3,2-0.8c0.5-0.5,0.8-1.2,0.8-2c0-0.8-0.3-1.4-0.8-2C566.8,182.9,566.2,182.6,565.4,182.6z"/>
	<path class="st0" d="M565.4,191.9c-0.6,0-1.1,0.2-1.5,0.6c-0.4,0.4-0.6,0.9-0.6,1.6v18.8c0,0.6,0.2,1.1,0.6,1.5
		c0.4,0.4,0.9,0.6,1.5,0.6c0.6,0,1.2-0.2,1.6-0.6c0.4-0.4,0.6-0.9,0.6-1.5v-18.8c0-0.6-0.2-1.2-0.6-1.6
		C566.6,192.1,566.1,191.9,565.4,191.9z"/>
	<path class="st0" d="M595.6,193.2c-1.6-1-3.5-1.5-5.6-1.5c-2.2,0-4.2,0.5-5.9,1.5c-1.7,1-3.1,2.4-4,4.1c-1,1.8-1.5,3.8-1.5,6.1
		c0,2.3,0.5,4.3,1.5,6c1,1.8,2.4,3.1,4.3,4.1c1.8,1,3.9,1.5,6.2,1.5c1.3,0,2.6-0.2,4.1-0.7c1.4-0.5,2.6-1.1,3.6-1.9
		c0.5-0.4,0.7-0.8,0.7-1.3c0-0.5-0.3-1-0.8-1.4c-0.4-0.3-0.8-0.5-1.3-0.4c-0.5,0-0.9,0.2-1.4,0.5c-0.6,0.4-1.3,0.8-2.2,1.1
		c-0.9,0.3-1.8,0.5-2.7,0.5c-1.6,0-3-0.4-4.3-1.1c-1.2-0.7-2.2-1.7-2.9-2.9c-0.5-0.8-0.8-1.7-0.9-2.7h16c0.6,0,1-0.2,1.4-0.5
		c0.4-0.4,0.5-0.8,0.5-1.3c0-2.2-0.4-4.2-1.2-5.9C598.4,195.5,597.2,194.2,595.6,193.2z M585.9,196.4c1.1-0.7,2.5-1.1,4.1-1.1
		c1.4,0,2.6,0.3,3.6,1c1,0.6,1.7,1.5,2.3,2.6c0.4,0.8,0.6,1.7,0.7,2.6h-14c0.1-0.8,0.4-1.6,0.7-2.3
		C583.9,198.1,584.7,197.1,585.9,196.4z"/>
	<path class="st0" d="M624.2,203c-1.2-0.6-2.9-1.2-5-1.6c-1.5-0.3-2.7-0.6-3.5-0.9c-0.8-0.3-1.3-0.7-1.6-1.1
		c-0.3-0.4-0.4-0.9-0.4-1.4c0-0.8,0.4-1.4,1.3-1.9c0.9-0.4,1.9-0.6,3.1-0.6c1.1,0,2,0.1,2.8,0.4c0.8,0.3,1.6,0.7,2.3,1.4
		c0.4,0.4,0.9,0.6,1.6,0.8c0.6,0.1,1.2,0,1.6-0.3c0.4-0.3,0.7-0.8,0.7-1.2c0-0.5-0.2-1-0.5-1.4c-0.8-1-2-1.9-3.4-2.4
		c-1.4-0.6-3.1-0.9-4.9-0.9c-1.4,0-2.8,0.2-4.1,0.7c-1.3,0.5-2.4,1.2-3.2,2.1c-0.8,0.9-1.3,2.1-1.3,3.6c0,1.6,0.6,3,1.9,4.1
		c1.3,1.1,3.3,2,6.2,2.5c2.2,0.4,3.7,0.9,4.5,1.5c0.8,0.6,1.2,1.3,1.2,2.2c0,0.8-0.5,1.5-1.3,2.1c-0.9,0.5-2.1,0.8-3.7,0.8
		c-1.3,0-2.5-0.2-3.5-0.7c-1.1-0.5-1.8-1-2.3-1.5c-0.4-0.4-0.9-0.7-1.4-0.7c-0.5-0.1-1.1,0.1-1.7,0.6c-0.5,0.4-0.8,0.8-0.8,1.4
		c-0.1,0.6,0.1,1.1,0.5,1.5c0.9,0.9,2.2,1.7,3.9,2.3c1.7,0.6,3.5,0.9,5.5,0.9c2,0,3.7-0.3,5-0.9c1.3-0.6,2.3-1.4,3-2.5
		c0.7-1,1-2.2,1-3.5c0-1.1-0.3-2.1-0.8-3C626.3,204.4,625.4,203.6,624.2,203z"/>
	<path class="st0" d="M670.5,183.4c-1.6-0.9-3.5-1.4-5.6-1.4h-8.4c-0.6,0-1.1,0.2-1.6,0.6c-0.4,0.4-0.6,0.9-0.6,1.6v28.5
		c0,0.6,0.2,1.1,0.6,1.6c0.4,0.4,0.9,0.6,1.6,0.6c0.6,0,1.2-0.2,1.6-0.6c0.4-0.4,0.6-0.9,0.6-1.6v-9.2h6.2c2.1,0,4-0.4,5.6-1.3
		c1.6-0.9,2.9-2.1,3.8-3.8c0.9-1.6,1.4-3.4,1.4-5.5c0-2.1-0.5-4-1.4-5.7C673.4,185.7,672.1,184.4,670.5,183.4z M670.6,196.3
		c-0.6,1-1.3,1.8-2.3,2.3c-1,0.6-2.1,0.8-3.4,0.8h-6.2v-13.4h6.2c1.3,0,2.4,0.3,3.4,0.9c1,0.6,1.8,1.4,2.3,2.4
		c0.6,1,0.8,2.2,0.8,3.6C671.5,194.2,671.2,195.4,670.6,196.3z"/>
	<path class="st0" d="M702.1,192.2c-0.5-0.3-1.1-0.3-1.6-0.1c-0.5,0.2-0.9,0.5-1.2,1l-7.3,15.8l-7.3-15.8c-0.3-0.5-0.6-0.8-1.1-1
		c-0.5-0.2-1-0.1-1.5,0.1c-0.5,0.3-0.9,0.6-1.1,1.1c-0.2,0.5-0.2,0.9,0.1,1.4l8.9,18.8c0.5,0.9,1.2,1.4,2,1.4c0.9,0,1.5-0.5,1.9-1.4
		l8.9-18.8c0.2-0.5,0.3-1,0.1-1.4C702.9,192.8,702.6,192.4,702.1,192.2z"/>
	<path class="st0" d="M721.4,210.8H720c-0.9,0-1.7-0.4-2.3-1.1c-0.6-0.8-0.9-1.7-0.9-2.8v-10.4h3.6c0.6,0,1.1-0.2,1.4-0.5
		c0.4-0.3,0.5-0.8,0.5-1.3c0-0.6-0.2-1-0.5-1.3c-0.4-0.3-0.8-0.5-1.4-0.5h-3.6v-6.1c0-0.6-0.2-1.1-0.6-1.5c-0.4-0.4-0.9-0.6-1.5-0.6
		c-0.6,0-1.1,0.2-1.5,0.6c-0.4,0.4-0.6,0.9-0.6,1.5v6.1h-1.9c-0.6,0-1.1,0.2-1.4,0.5c-0.4,0.3-0.5,0.8-0.5,1.3
		c0,0.5,0.2,0.9,0.5,1.3c0.4,0.3,0.8,0.5,1.4,0.5h1.9v10.4c0,1.5,0.3,2.9,1,4.2c0.6,1.2,1.5,2.2,2.7,2.9c1.1,0.7,2.4,1.1,3.8,1.1
		h0.8c0.7,0,1.3-0.2,1.8-0.6c0.5-0.4,0.7-0.9,0.7-1.5c0-0.6-0.2-1.1-0.5-1.5C722.4,211,721.9,210.8,721.4,210.8z"/>
	<path class="st0" d="M769.3,210.6h-15.3v-26.3c0-0.6-0.2-1.1-0.6-1.6c-0.4-0.4-0.9-0.6-1.6-0.6c-0.6,0-1.1,0.2-1.5,0.6
		c-0.4,0.4-0.6,0.9-0.6,1.6v28.5c0,0.6,0.2,1.1,0.6,1.6c0.4,0.4,0.9,0.6,1.5,0.6h17.4c0.6,0,1.1-0.2,1.6-0.6
		c0.4-0.4,0.6-0.9,0.6-1.6c0-0.6-0.2-1.1-0.6-1.6C770.5,210.8,769.9,210.6,769.3,210.6z"/>
	<path class="st0" d="M790.4,210.8H789c-0.9,0-1.7-0.4-2.3-1.1c-0.6-0.8-0.9-1.7-0.9-2.8v-10.4h3.6c0.6,0,1.1-0.2,1.4-0.5
		c0.4-0.3,0.5-0.8,0.5-1.3c0-0.6-0.2-1-0.5-1.3c-0.4-0.3-0.8-0.5-1.4-0.5h-3.6v-6.1c0-0.6-0.2-1.1-0.6-1.5c-0.4-0.4-0.9-0.6-1.5-0.6
		c-0.6,0-1.1,0.2-1.5,0.6c-0.4,0.4-0.6,0.9-0.6,1.5v6.1h-1.9c-0.6,0-1.1,0.2-1.4,0.5c-0.4,0.3-0.5,0.8-0.5,1.3
		c0,0.5,0.2,0.9,0.5,1.3c0.4,0.3,0.8,0.5,1.4,0.5h1.9v10.4c0,1.5,0.3,2.9,1,4.2c0.6,1.2,1.5,2.2,2.7,2.9c1.1,0.7,2.4,1.1,3.8,1.1
		h0.8c0.7,0,1.3-0.2,1.8-0.6c0.5-0.4,0.7-0.9,0.7-1.5c0-0.6-0.2-1.1-0.5-1.5C791.3,211,790.9,210.8,790.4,210.8z"/>
	<path class="st0" d="M821.6,182.1c-0.6,0-1.1,0.2-1.5,0.6c-0.4,0.4-0.6,0.9-0.6,1.6v11.4c-1-1.2-2.1-2.1-3.5-2.8
		c-1.4-0.7-2.9-1-4.6-1c-2.1,0-3.9,0.5-5.5,1.5c-1.6,1-2.9,2.4-3.9,4.2c-0.9,1.8-1.4,3.7-1.4,6c0,2.2,0.5,4.2,1.5,6
		c1,1.8,2.4,3.2,4.2,4.2c1.8,1,3.7,1.5,5.9,1.5c2.2,0,4.2-0.5,5.9-1.5c1.7-1,3.1-2.4,4.2-4.2c1-1.8,1.5-3.8,1.5-6v-19.2
		c0-0.6-0.2-1.2-0.6-1.6C822.7,182.3,822.2,182.1,821.6,182.1z M818.6,207.5c-0.6,1.2-1.5,2.2-2.7,2.8c-1.1,0.7-2.4,1-3.8,1
		c-1.4,0-2.7-0.3-3.8-1c-1.1-0.7-2-1.6-2.7-2.8c-0.7-1.2-1-2.6-1-4c0-1.5,0.3-2.9,1-4c0.7-1.2,1.6-2.1,2.7-2.8c1.1-0.7,2.4-1,3.8-1
		c1.4,0,2.7,0.3,3.8,1c1.1,0.7,2,1.6,2.7,2.8c0.6,1.2,1,2.5,1,4C819.6,204.9,819.3,206.3,818.6,207.5z"/>
</g>
</svg>
