<?xml version="1.0" encoding="utf-8"?>
<!-- Generator: Adobe Illustrator 26.0.1, SVG Export Plug-In . SVG Version: 6.00 Build 0)  -->
<svg version="1.1" id="Layer_1" xmlns="http://www.w3.org/2000/svg" xmlns:xlink="http://www.w3.org/1999/xlink" x="0px" y="0px"
	 viewBox="0 0 1118.2 357" style="enable-background:new 0 0 1118.2 357;" xml:space="preserve">
<style type="text/css">
	.st0{fill:#FFFFFF;}
</style>
<g>
	<path class="st0" d="M323.1,268.5c-2.1-1-4.5-1.5-7.1-1.5c-3.5,0-6.5,0.8-9.2,2.3c-2.7,1.6-4.8,3.7-6.3,6.5s-2.3,5.9-2.3,9.4
		s0.8,6.6,2.3,9.3c1.6,2.7,3.7,4.9,6.4,6.5c2.7,1.6,5.9,2.4,9.4,2.4c4.7,0,8.7-1.5,11.8-4.4c0.6-0.6,0.9-1.3,0.8-2.1
		c-0.1-0.8-0.5-1.5-1.2-2.1c-0.6-0.5-1.2-0.7-2-0.6c-0.7,0.1-1.5,0.4-2.2,1c-1,0.8-2,1.4-3.2,1.7c-1.2,0.4-2.5,0.6-4,0.6
		c-2.3,0-4.4-0.5-6.1-1.6c-1.8-1.1-3.1-2.5-4.1-4.4c-1-1.8-1.5-3.9-1.5-6.3c0-2.5,0.5-4.7,1.4-6.5c1-1.8,2.3-3.3,4-4.3
		s3.7-1.5,5.9-1.5c3.2,0,5.9,1.1,8,3.4c0.6,0.6,1.3,1,2,1.1c0.7,0.2,1.4,0,2-0.4c0.8-0.6,1.3-1.2,1.4-2c0.2-0.7,0-1.5-0.7-2.2
		C327.1,270.9,325.2,269.4,323.1,268.5z"/>
	<path class="st0" d="M371.6,269.3c-2.7-1.6-5.8-2.3-9.3-2.3s-6.7,0.8-9.4,2.3c-2.7,1.6-4.8,3.7-6.4,6.4c-1.6,2.7-2.3,5.9-2.3,9.5
		c0,3.5,0.8,6.7,2.3,9.4c1.6,2.7,3.7,4.9,6.4,6.4c2.7,1.6,5.8,2.3,9.4,2.3c3.5,0,6.7-0.8,9.4-2.3c2.7-1.6,4.8-3.7,6.4-6.4
		c1.5-2.7,2.3-5.9,2.3-9.4c0-3.6-0.8-6.7-2.3-9.5C376.5,273,374.3,270.9,371.6,269.3z M372.4,291.6c-1,1.8-2.4,3.3-4.1,4.3
		c-1.8,1.1-3.8,1.6-6,1.6c-2.3,0-4.3-0.5-6-1.6c-1.8-1-3.1-2.5-4.1-4.3s-1.5-4-1.5-6.4s0.5-4.5,1.5-6.4s2.4-3.3,4.1-4.4
		c1.7-1,3.8-1.6,6-1.6c2.3,0,4.3,0.5,6,1.6c1.7,1,3.1,2.5,4.1,4.4s1.5,4,1.5,6.4S373.4,289.8,372.4,291.6z"/>
	<path class="st0" d="M422.8,268.9c-2.4-1.3-5.1-1.9-8.1-1.9c-2.9,0-5.5,0.6-7.8,1.9c-1.3,0.7-2.4,1.5-3.3,2.5v-0.7
		c0-1-0.3-1.8-0.9-2.4s-1.4-0.9-2.4-0.9s-1.8,0.3-2.4,0.9s-1,1.4-1,2.4V300c0,1,0.3,1.8,1,2.4c0.6,0.6,1.4,1,2.4,1s1.8-0.3,2.4-1
		c0.6-0.6,0.9-1.4,0.9-2.4v-18.5c0-1.6,0.4-3.1,1.3-4.3c0.9-1.2,2.1-2.2,3.5-3c1.5-0.7,3.1-1.1,5-1.1c2,0,3.8,0.4,5.3,1.1
		c1.6,0.8,2.8,1.9,3.7,3.5c0.9,1.6,1.4,3.6,1.4,6.1v16.1c0,1,0.3,1.8,1,2.4c0.6,0.6,1.4,1,2.4,1s1.8-0.3,2.4-1c0.6-0.6,1-1.4,1-2.4
		v-16.1c0-3.6-0.7-6.7-2.1-9.2C427.1,272,425.2,270.1,422.8,268.9z"/>
	<path class="st0" d="M474.2,268.9c-2.4-1.3-5.1-1.9-8.1-1.9c-2.9,0-5.5,0.6-7.8,1.9c-1.3,0.7-2.4,1.5-3.3,2.5v-0.7
		c0-1-0.3-1.8-0.9-2.4s-1.4-0.9-2.4-0.9s-1.8,0.3-2.4,0.9s-1,1.4-1,2.4V300c0,1,0.3,1.8,1,2.4c0.6,0.6,1.4,1,2.4,1s1.8-0.3,2.4-1
		c0.6-0.6,0.9-1.4,0.9-2.4v-18.5c0-1.6,0.4-3.1,1.3-4.3c0.9-1.2,2.1-2.2,3.5-3c1.5-0.7,3.1-1.1,5-1.1c2,0,3.8,0.4,5.3,1.1
		c1.6,0.8,2.8,1.9,3.7,3.5c0.9,1.6,1.4,3.6,1.4,6.1v16.1c0,1,0.3,1.8,1,2.4c0.6,0.6,1.4,1,2.4,1s1.8-0.3,2.4-1c0.6-0.6,1-1.4,1-2.4
		v-16.1c0-3.6-0.7-6.7-2.1-9.2C478.4,272,476.5,270.1,474.2,268.9z"/>
	<path class="st0" d="M524.2,269.2c-2.5-1.5-5.4-2.3-8.8-2.3c-3.5,0-6.5,0.8-9.2,2.3c-2.7,1.6-4.8,3.7-6.3,6.4
		c-1.5,2.7-2.3,5.9-2.3,9.5c0,3.5,0.8,6.7,2.4,9.4c1.6,2.7,3.8,4.9,6.6,6.4c2.8,1.6,6,2.3,9.7,2.3c2,0,4.1-0.4,6.3-1.1
		s4.1-1.7,5.5-2.9c0.7-0.6,1.1-1.2,1-2c0-0.8-0.4-1.5-1.2-2.2c-0.6-0.5-1.2-0.7-2-0.7s-1.5,0.3-2.1,0.8c-0.9,0.7-2,1.2-3.4,1.7
		s-2.8,0.8-4.2,0.8c-2.5,0-4.7-0.5-6.6-1.6s-3.4-2.6-4.5-4.5c-0.7-1.3-1.2-2.6-1.4-4.1h24.9c0.9,0,1.6-0.3,2.2-0.8
		c0.6-0.5,0.9-1.2,0.9-2.1c0-3.5-0.6-6.5-1.9-9.2C528.5,272.8,526.6,270.8,524.2,269.2z M509,274.3c1.8-1.1,3.9-1.6,6.4-1.6
		c2.2,0,4,0.5,5.6,1.5c1.5,1,2.7,2.4,3.5,4.1c0.6,1.2,1,2.6,1.2,4h-21.8c0.2-1.2,0.6-2.4,1.1-3.5C505.9,276.9,507.2,275.4,509,274.3
		z"/>
	<path class="st0" d="M568.6,268.5c-2.1-1-4.5-1.5-7.1-1.5c-3.5,0-6.5,0.8-9.2,2.3c-2.7,1.6-4.8,3.7-6.3,6.5s-2.3,5.9-2.3,9.4
		s0.8,6.6,2.3,9.3c1.6,2.7,3.7,4.9,6.4,6.5s5.9,2.4,9.4,2.4c4.7,0,8.7-1.5,11.8-4.4c0.6-0.6,0.9-1.3,0.8-2.1
		c-0.1-0.8-0.5-1.5-1.2-2.1c-0.6-0.5-1.2-0.7-2-0.6c-0.7,0.1-1.5,0.4-2.2,1c-1,0.8-2,1.4-3.2,1.7c-1.2,0.4-2.5,0.6-4,0.6
		c-2.3,0-4.4-0.5-6.1-1.6c-1.8-1.1-3.1-2.5-4.1-4.4c-1-1.8-1.5-3.9-1.5-6.3c0-2.5,0.5-4.7,1.4-6.5c1-1.8,2.3-3.3,4-4.3
		s3.7-1.5,5.9-1.5c3.2,0,5.9,1.1,8,3.4c0.6,0.6,1.3,1,2,1.1c0.7,0.2,1.4,0,2-0.4c0.8-0.6,1.3-1.2,1.4-2c0.2-0.7,0-1.5-0.7-2.2
		C572.6,270.9,570.7,269.4,568.6,268.5z"/>
	<path class="st0" d="M606.8,296.6h-2.2c-1.4,0-2.6-0.6-3.5-1.8c-1-1.2-1.4-2.6-1.4-4.4v-16.2h5.6c0.9,0,1.7-0.3,2.2-0.8
		c0.6-0.5,0.9-1.2,0.9-2c0-0.9-0.3-1.6-0.9-2.1c-0.6-0.5-1.3-0.8-2.2-0.8h-5.6V259c0-1-0.3-1.7-0.9-2.4c-0.6-0.6-1.4-0.9-2.4-0.9
		s-1.8,0.3-2.4,0.9c-0.6,0.6-0.9,1.4-0.9,2.4v9.5h-3c-0.9,0-1.7,0.3-2.2,0.8s-0.9,1.2-0.9,2.1c0,0.8,0.3,1.4,0.9,2
		c0.6,0.5,1.3,0.8,2.2,0.8h3v16.2c0,2.4,0.5,4.6,1.5,6.5s2.4,3.4,4.1,4.6c1.7,1.1,3.7,1.7,5.9,1.7h1.2c1.1,0,2.1-0.3,2.8-0.9
		s1.1-1.4,1.1-2.4s-0.3-1.7-0.8-2.4C608.3,296.9,607.6,296.6,606.8,296.6z"/>
	<path class="st0" d="M683.5,251.9h-14.1h-6.8h-14.2c-0.9,0-1.7,0.3-2.3,0.9s-0.9,1.3-0.9,2.3c0,0.9,0.3,1.7,0.9,2.3
		c0.6,0.6,1.3,0.9,2.3,0.9h14.2v41.5c0,1,0.3,1.8,1,2.4s1.5,1,2.4,1c1,0,1.8-0.3,2.4-1s1-1.5,1-2.4v-41.5h14.1
		c0.9,0,1.7-0.3,2.3-0.9s0.9-1.3,0.9-2.3c0-0.9-0.3-1.7-0.9-2.3C685.2,252.2,684.4,251.9,683.5,251.9z"/>
	<path class="st0" d="M715,269.2c-2.5-1.5-5.4-2.3-8.8-2.3c-3.5,0-6.5,0.8-9.2,2.3c-2.7,1.6-4.8,3.7-6.3,6.4
		c-1.5,2.7-2.3,5.9-2.3,9.5c0,3.5,0.8,6.7,2.4,9.4c1.6,2.7,3.8,4.9,6.6,6.4c2.8,1.6,6,2.3,9.7,2.3c2,0,4.1-0.4,6.3-1.1
		s4.1-1.7,5.5-2.9c0.7-0.6,1.1-1.2,1-2c0-0.8-0.4-1.5-1.2-2.2c-0.6-0.5-1.2-0.7-2-0.7s-1.5,0.3-2.1,0.8c-0.9,0.7-2,1.2-3.4,1.7
		s-2.8,0.8-4.2,0.8c-2.5,0-4.7-0.5-6.6-1.6c-1.9-1.1-3.4-2.6-4.5-4.5c-0.7-1.3-1.2-2.6-1.4-4.1h24.9c0.9,0,1.6-0.3,2.2-0.8
		c0.6-0.5,0.9-1.2,0.9-2.1c0-3.5-0.6-6.5-1.9-9.2C719.3,272.8,717.4,270.8,715,269.2z M699.8,274.3c1.8-1.1,3.9-1.6,6.4-1.6
		c2.2,0,4,0.5,5.6,1.5c1.5,1,2.7,2.4,3.5,4.1c0.6,1.2,1,2.6,1.2,4h-21.8c0.2-1.2,0.6-2.4,1.1-3.5C696.6,276.9,698,275.4,699.8,274.3
		z"/>
	<path class="st0" d="M759.3,268.5c-2.1-1-4.5-1.5-7.1-1.5c-3.5,0-6.5,0.8-9.2,2.3c-2.7,1.6-4.8,3.7-6.3,6.5s-2.3,5.9-2.3,9.4
		s0.8,6.6,2.3,9.3c1.6,2.7,3.7,4.9,6.4,6.5s5.9,2.4,9.4,2.4c4.7,0,8.7-1.5,11.8-4.4c0.6-0.6,0.9-1.3,0.8-2.1
		c-0.1-0.8-0.5-1.5-1.2-2.1c-0.6-0.5-1.2-0.7-2-0.6c-0.7,0.1-1.5,0.4-2.2,1c-1,0.8-2,1.4-3.2,1.7c-1.2,0.4-2.5,0.6-4,0.6
		c-2.3,0-4.4-0.5-6.1-1.6c-1.8-1.1-3.1-2.5-4.1-4.4c-1-1.8-1.5-3.9-1.5-6.3c0-2.5,0.5-4.7,1.4-6.5c1-1.8,2.3-3.3,4-4.3
		s3.7-1.5,5.9-1.5c3.2,0,5.9,1.1,8,3.4c0.6,0.6,1.3,1,2,1.1c0.7,0.2,1.4,0,2-0.4c0.8-0.6,1.3-1.2,1.4-2c0.2-0.7,0-1.5-0.7-2.2
		C763.4,270.9,761.5,269.4,759.3,268.5z"/>
	<path class="st0" d="M808.2,268.9c-2.4-1.3-5.1-1.9-8.1-1.9c-2.9,0-5.5,0.6-7.8,1.9c-1.3,0.7-2.4,1.5-3.3,2.5v-0.7v-15.4
		c0-1-0.3-1.8-0.9-2.4c-0.6-0.6-1.4-0.9-2.4-0.9s-1.8,0.3-2.4,0.9c-0.6,0.6-1,1.4-1,2.4v15.4v16.1v13.1c0,1,0.3,1.8,1,2.4
		c0.6,0.6,1.4,1,2.4,1s1.8-0.3,2.4-1c0.6-0.6,0.9-1.4,0.9-2.4v-13.1v-5.4c0-1.6,0.4-3.1,1.3-4.3c0.9-1.2,2.1-2.2,3.5-3
		c1.5-0.7,3.2-1.1,5-1.1c2,0,3.8,0.4,5.3,1.1c1.6,0.8,2.8,1.9,3.7,3.5s1.4,3.6,1.4,6.1v16.1c0,1,0.3,1.8,1,2.4c0.6,0.6,1.4,1,2.4,1
		s1.8-0.3,2.4-1c0.6-0.6,1-1.4,1-2.4v-16.1c0-3.6-0.7-6.7-2.1-9.2C812.5,272,810.6,270.1,808.2,268.9z"/>
	<path class="st0" d="M859.6,268.9c-2.4-1.3-5.1-1.9-8.1-1.9c-2.9,0-5.5,0.6-7.8,1.9c-1.3,0.7-2.4,1.5-3.3,2.5v-0.7
		c0-1-0.3-1.8-0.9-2.4c-0.6-0.6-1.4-0.9-2.4-0.9s-1.8,0.3-2.4,0.9c-0.6,0.6-1,1.4-1,2.4V300c0,1,0.3,1.8,1,2.4c0.6,0.6,1.4,1,2.4,1
		s1.8-0.3,2.4-1c0.6-0.6,0.9-1.4,0.9-2.4v-18.5c0-1.6,0.4-3.1,1.3-4.3c0.9-1.2,2.1-2.2,3.5-3c1.5-0.7,3.2-1.1,5-1.1
		c2,0,3.8,0.4,5.3,1.1c1.6,0.8,2.8,1.9,3.7,3.5s1.4,3.6,1.4,6.1v16.1c0,1,0.3,1.8,1,2.4c0.6,0.6,1.4,1,2.4,1s1.8-0.3,2.4-1
		c0.6-0.6,1-1.4,1-2.4v-16.1c0-3.6-0.7-6.7-2.1-9.2C863.9,272,862,270.1,859.6,268.9z"/>
	<path class="st0" d="M910.6,269.3c-2.7-1.6-5.8-2.3-9.3-2.3s-6.7,0.8-9.4,2.3c-2.7,1.6-4.8,3.7-6.4,6.4c-1.6,2.7-2.3,5.9-2.3,9.5
		c0,3.5,0.8,6.7,2.3,9.4c1.6,2.7,3.7,4.9,6.4,6.4c2.7,1.6,5.8,2.3,9.4,2.3c3.5,0,6.7-0.8,9.4-2.3c2.7-1.6,4.8-3.7,6.4-6.4
		c1.5-2.7,2.3-5.9,2.3-9.4c0-3.6-0.8-6.7-2.3-9.5C915.4,273,913.3,270.9,910.6,269.3z M911.4,291.6c-1,1.8-2.4,3.3-4.1,4.3
		c-1.8,1.1-3.8,1.6-6,1.6c-2.3,0-4.3-0.5-6-1.6c-1.8-1-3.1-2.5-4.1-4.3s-1.5-4-1.5-6.4s0.5-4.5,1.5-6.4s2.4-3.3,4.1-4.4
		c1.7-1,3.8-1.6,6-1.6c2.3,0,4.3,0.5,6,1.6c1.7,1,3.1,2.5,4.1,4.4s1.5,4,1.5,6.4S912.4,289.8,911.4,291.6z"/>
	<path class="st0" d="M946,296.6h-1.6c-1,0-1.8-0.5-2.4-1.6c-0.6-1-0.9-2.4-0.9-4v-35.8c0-1-0.3-1.7-0.9-2.4
		c-0.6-0.6-1.4-0.9-2.4-0.9s-1.8,0.3-2.4,0.9c-0.6,0.6-0.9,1.4-0.9,2.4V291c0,2.4,0.4,4.5,1.2,6.3s2,3.2,3.5,4.3
		c1.5,1,3.2,1.6,5.1,1.6h0.1c1.3,0,2.4-0.3,3.2-0.9s1.2-1.4,1.2-2.4s-0.3-1.7-0.8-2.4C947.6,296.9,946.9,296.6,946,296.6z"/>
	<path class="st0" d="M985.7,269.3c-2.7-1.6-5.8-2.3-9.3-2.3s-6.7,0.8-9.4,2.3c-2.7,1.6-4.8,3.7-6.4,6.4c-1.6,2.7-2.3,5.9-2.3,9.5
		c0,3.5,0.8,6.7,2.3,9.4c1.6,2.7,3.7,4.9,6.4,6.4c2.7,1.6,5.8,2.3,9.4,2.3c3.5,0,6.7-0.8,9.4-2.3c2.7-1.6,4.8-3.7,6.4-6.4
		c1.5-2.7,2.3-5.9,2.3-9.4c0-3.6-0.8-6.7-2.3-9.5C990.5,273,988.4,270.9,985.7,269.3z M986.5,291.6c-1,1.8-2.4,3.3-4.1,4.3
		c-1.8,1.1-3.8,1.6-6,1.6c-2.3,0-4.3-0.5-6-1.6c-1.8-1-3.1-2.5-4.1-4.3s-1.5-4-1.5-6.4s0.5-4.5,1.5-6.4s2.4-3.3,4.1-4.4
		c1.7-1,3.8-1.6,6-1.6c2.3,0,4.3,0.5,6,1.6c1.7,1,3.1,2.5,4.1,4.4s1.5,4,1.5,6.4S987.5,289.8,986.5,291.6z"/>
	<path class="st0" d="M1036.6,269.3c-2.7-1.6-5.8-2.3-9.3-2.3s-6.7,0.8-9.4,2.3c-2.7,1.6-4.8,3.7-6.4,6.4c-1.6,2.7-2.3,5.9-2.3,9.5
		c0,3.5,0.7,6.7,2.2,9.4c1.4,2.7,3.4,4.9,5.9,6.4c2.5,1.6,5.4,2.3,8.7,2.3c3,0,5.7-0.8,8-2.3c2-1.4,3.6-3.2,4.9-5.4v3.3
		c0,2.8-0.5,5.2-1.6,7.2s-2.5,3.5-4.2,4.5c-1.8,1-3.7,1.5-5.8,1.5c-2.3,0-4.3-0.4-6.1-1.2c-1.8-0.8-3.3-2-4.5-3.5
		c-0.5-0.7-1.2-1.1-2.1-1.3c-0.9-0.2-1.7,0-2.5,0.5c-0.7,0.5-1.1,1.1-1.3,1.9s0.1,1.6,0.6,2.3c1.9,2.4,4.2,4.2,6.9,5.4
		c2.7,1.2,5.6,1.8,8.7,1.8c3.6,0,6.7-0.8,9.5-2.5c2.7-1.7,4.9-3.9,6.4-6.7c1.5-2.8,2.3-6,2.3-9.4v-14.2c0-3.6-0.8-6.7-2.3-9.5
		C1041.4,273,1039.3,270.9,1036.6,269.3z M1033.3,295.9c-1.8,1.1-3.8,1.6-6,1.6c-2.3,0-4.3-0.5-6-1.6c-1.8-1-3.1-2.5-4.1-4.3
		s-1.5-4-1.5-6.4s0.5-4.5,1.5-6.4s2.4-3.3,4.1-4.4c1.7-1,3.8-1.6,6-1.6c2.3,0,4.3,0.5,6,1.6c1.7,1,3.1,2.5,4.1,4.4s1.5,4,1.5,6.4
		s-0.5,4.5-1.5,6.4C1036.4,293.4,1035,294.9,1033.3,295.9z"/>
	<path class="st0" d="M1089.3,267.6c-1.9-0.8-3.3-0.3-4.1,1.6l-10.5,23.8l-12-23.9c-0.4-0.8-1-1.4-1.7-1.7c-0.7-0.3-1.5-0.3-2.4,0.1
		c-0.8,0.4-1.4,0.9-1.7,1.7c-0.3,0.8-0.3,1.6,0.2,2.4l14.7,28l-6.5,14.8c-0.9,1.9-0.4,3.3,1.6,4.1c0.6,0.3,1.1,0.4,1.6,0.4
		c1.2,0,2-0.7,2.6-2l20.1-45.1C1091.8,269.8,1091.2,268.4,1089.3,267.6z"/>
	<path class="st0" d="M401.9,196c0-12.6-4.3-23-12.9-30.8c-8.4-7.6-20-12.2-34.7-13.7c-8.6-0.9-15.1-2.4-19.5-4.5
		c-4.1-2-6.8-4.2-8.2-6.7c-1.5-2.6-2.2-5.2-2.2-8.1c0-5.4,2.1-9.2,6.7-11.8c5-2.8,11.3-4.3,18.8-4.3c0.3,0,0.5,0,0.9,0
		c4.4,0,8.2,0.6,11.3,1.8c3.1,1.2,5.9,2.8,8.2,4.8c2.3,2,4.3,4.5,6,7.5c1.8,3.1,4.5,5.2,8,6.3c1.3,0.4,2.7,0.6,4,0.6
		c2.3,0,4.5-0.7,6.6-2c3-1.9,4.8-4.7,5.2-8.2c0.4-3.2-0.5-6.5-2.6-9.8c-3.1-5.1-6.8-9.6-11.1-13.3c-4.3-3.8-9.4-6.8-15.1-9
		c-5.7-2.1-12.4-3.2-20-3.2c-9.5,0-18.3,1.5-26.1,4.4c-8,3-14.5,7.6-19.2,13.5c-4.9,6.1-7.3,13.5-7.3,22.1
		c0,11.6,4.6,21.5,13.8,29.4c8.9,7.6,21.1,12.2,36.2,13.7c10.1,1.1,17.3,3.7,21.4,7.9c4.1,4.1,6.1,8.7,6.1,13.8
		c0,3.9-1.1,7.1-3.4,9.7c-2.5,2.8-5.8,5-9.8,6.5c-4.2,1.6-9,2.4-14.1,2.4c-4.6,0-8.9-0.7-13-2.1c-4.1-1.4-7.6-3.2-10.4-5.3
		c-2.7-2-4.6-4.3-5.7-6.6c-1.4-3-3.5-5.3-6.3-6.8c-2-1.1-4.1-1.6-6.2-1.6c-0.9,0-1.8,0.1-2.6,0.3c-4.1,0.8-7,2.8-8.9,5.9
		c-1.9,3.2-2,6.8-0.3,10.5c2.6,6,6.6,11.4,12.1,15.9c5.4,4.5,11.7,8,18.9,10.5c7.1,2.5,14.7,3.7,22.6,3.7c6.6,0,13.1-0.9,19.3-2.6
		c6.3-1.7,12-4.4,17-8s9.1-8.2,12.1-13.6C400.4,209.8,401.9,203.3,401.9,196z"/>
	<path class="st0" d="M501.4,225.7l0.1-0.1c2.5-2.5,3.6-5.5,3.2-8.8c-0.4-3.1-2-5.8-4.7-8.1c-2.1-1.7-4.5-2.6-7.1-2.6
		c-0.3,0-0.7,0-1.1,0c-2.8,0.2-5.4,1.4-7.9,3.4c-2.2,1.8-4.6,3.1-7.2,3.9c-2.7,0.9-5.9,1.3-9.5,1.3c-5.4,0-10.2-1.2-14.1-3.7
		c-4.1-2.5-7.2-5.8-9.5-10.1s-3.5-9.3-3.5-14.9c0-6,1.1-11.1,3.4-15.4c2.2-4.3,5.2-7.5,9.2-9.9c3.9-2.3,8.5-3.5,13.6-3.5
		c7.4,0,13.4,2.6,18.4,7.8l0.1,0.1c2.2,2.2,4.7,3.6,7.4,4.1c0.8,0.2,1.6,0.2,2.3,0.2c2.2,0,4.3-0.7,6.2-2c2.9-2.1,4.7-4.6,5.4-7.6
		c0.5-2.3,0.5-5.7-2.6-9.3c-4.9-5.6-10.5-10-16.7-12.8s-13.1-4.3-20.5-4.3c-9.9,0-18.8,2.3-26.4,6.7c-7.7,4.5-13.8,10.8-18.2,18.7
		c-4.4,7.9-6.6,17-6.6,27.1c0,9.9,2.3,18.8,6.7,26.7c4.5,7.9,10.7,14.2,18.6,18.8s16.9,6.9,26.9,6.9
		C480.8,238.4,492.3,234.1,501.4,225.7z"/>
	<path class="st0" d="M599.8,139c-6.9-3.7-14.8-5.6-23.5-5.6c-8.3,0-16,1.9-22.7,5.6c-1,0.6-2,1.2-3,1.8v-34.4
		c0-3.8-1.2-6.9-3.6-9.3c-2.4-2.4-5.5-3.6-9.3-3.6c-3.6,0-6.7,1.2-9.2,3.6s-3.8,5.5-3.8,9.3V225c0,3.6,1.3,6.8,3.7,9.2
		s5.6,3.7,9.2,3.7c3.7,0,7-1.3,9.3-3.8c2.4-2.4,3.6-5.5,3.6-9.1v-49.2c0-3.5,0.9-6.5,2.8-9.1c2-2.8,4.6-5,7.9-6.7
		c3.4-1.7,7.2-2.5,11.5-2.5c4.7,0,8.9,0.9,12.5,2.6c3.4,1.7,6.1,4.2,8.2,7.8c2.1,3.5,3.1,8.3,3.1,14.2V225c0,3.6,1.3,6.8,3.7,9.2
		s5.6,3.7,9.2,3.7c3.6,0,6.8-1.3,9.2-3.7s3.7-5.6,3.7-9.2v-42.9c0-10.3-2-19.2-6-26.4C612.4,148.4,606.8,142.8,599.8,139z"/>
	<path class="st0" d="M743.3,186.1c0-10.2-2.3-19.3-6.7-27.2c-4.5-7.9-10.7-14.1-18.5-18.6s-16.8-6.7-26.8-6.7
		c-10.1,0-19.2,2.3-26.9,6.7c-7.8,4.5-14,10.7-18.5,18.6c-4.5,7.8-6.7,17-6.7,27.2c0,10.1,2.3,19.2,6.7,27
		c4.5,7.9,10.7,14.1,18.5,18.6s16.9,6.7,26.9,6.7c10.1,0,19.2-2.3,26.9-6.7c7.8-4.5,14-10.7,18.4-18.6
		C741.1,205.2,743.3,196.2,743.3,186.1z M705.3,211.1c-4,2.4-8.7,3.6-14,3.6s-10-1.2-14-3.6c-4.1-2.4-7.2-5.7-9.5-10
		s-3.5-9.3-3.5-15s1.2-10.8,3.5-15.1c2.4-4.3,5.5-7.6,9.5-10.1c4-2.4,8.7-3.6,14-3.6s10,1.2,14,3.6c4.1,2.4,7.1,5.7,9.4,10
		c2.3,4.3,3.5,9.4,3.5,15.1c0,5.7-1.2,10.8-3.5,15C712.5,205.4,709.4,208.7,705.3,211.1z"/>
	<path class="st0" d="M788.9,237.7c4.3,0,8-1.1,10.9-3.2c3.2-2.4,4.9-5.7,4.9-9.5c0-3.6-1.1-6.6-3.2-8.9c-2.2-2.5-5.2-3.8-8.7-3.8
		h-4.4c-0.5,0-1.5,0-2.8-2.2s-1.9-5.1-1.9-8.6v-95.3c0-3.6-1.2-6.7-3.6-9.1c-2.4-2.4-5.5-3.6-9.1-3.6s-6.7,1.2-9.1,3.6
		c-2.4,2.4-3.6,5.5-3.6,9.1v95.3c0,6.8,1.2,13,3.7,18.3c2.5,5.5,6.1,9.8,10.6,13c4.6,3.3,10,4.9,15.9,4.9H788.9z"/>
	<path class="st0" d="M828.9,126.7c4.2,0,7.9-1.5,10.9-4.6c3-3,4.6-6.7,4.6-10.9s-1.5-7.9-4.6-10.9c-3-3-6.7-4.6-10.9-4.6
		s-7.9,1.5-10.9,4.6c-3,3-4.6,6.7-4.6,10.9s1.5,7.9,4.6,10.9C821,125.2,824.7,126.7,828.9,126.7z"/>
	<path class="st0" d="M841.8,224.8v-77.7c0-3.8-1.2-6.9-3.6-9.3c-2.4-2.4-5.5-3.6-9.3-3.6c-3.6,0-6.7,1.2-9.2,3.6
		c-2.5,2.4-3.8,5.6-3.8,9.3v77.7c0,3.6,1.3,6.8,3.7,9.2s5.6,3.7,9.2,3.7c3.7,0,7-1.3,9.3-3.8C840.6,231.5,841.8,228.5,841.8,224.8z"
		/>
	<path class="st0" d="M966.2,225v-38.9c0-9.9-2.3-18.9-6.9-26.8c-4.6-7.9-10.8-14.2-18.6-18.8s-16.7-6.9-26.5-6.9
		s-18.7,2.3-26.5,6.9c-7.8,4.6-14.1,10.9-18.7,18.8c-4.6,7.9-6.9,16.9-6.9,26.8c0,9.8,2.1,18.8,6.3,26.6
		c4.2,7.9,10.1,14.2,17.4,18.8c7.4,4.6,15.8,7,25,7s17.6-2.3,25-7c1.7-1.1,3.4-2.3,5-3.6c0.5,2.4,1.7,4.6,3.4,6.3
		c2.4,2.4,5.6,3.7,9.2,3.7c3.6,0,6.8-1.3,9.2-3.7C964.9,231.8,966.2,228.6,966.2,225z M914.2,214.7c-5.1,0-9.6-1.2-13.7-3.7
		c-4.1-2.5-7.3-5.8-9.7-10.2c-2.4-4.3-3.6-9.3-3.6-14.7c0-5.6,1.2-10.6,3.6-14.9c2.4-4.4,5.6-7.7,9.7-10.2c4.1-2.5,8.6-3.7,13.7-3.7
		c5.2,0,9.7,1.2,13.8,3.7s7.2,5.8,9.6,10.2c2.3,4.3,3.5,9.4,3.5,14.9s-1.2,10.4-3.5,14.8c-2.4,4.4-5.5,7.7-9.6,10.2
		C924,213.5,919.5,214.7,914.2,214.7z"/>
	<path class="st0" d="M1060.2,234.2c2.4,2.4,5.6,3.7,9.2,3.7s6.8-1.3,9.2-3.7c2.4-2.4,3.7-5.6,3.7-9.2v-42.9c0-10.3-2-19.2-6-26.4
		c-4-7.3-9.6-12.9-16.6-16.7c-6.9-3.7-14.8-5.6-23.5-5.6c-8.3,0-16,1.9-22.7,5.6c-1.4,0.8-2.8,1.6-4.1,2.5c-0.6-1.3-1.4-2.5-2.5-3.6
		c-2.4-2.4-5.5-3.6-9.3-3.6c-3.6,0-6.7,1.2-9.2,3.6c-2.5,2.4-3.8,5.5-3.8,9.3V225c0,3.6,1.3,6.8,3.7,9.2s5.6,3.7,9.2,3.7
		c3.7,0,7-1.3,9.3-3.8c2.4-2.4,3.6-5.5,3.6-9.1v-49.2c0-3.5,0.9-6.5,2.8-9.1c2-2.8,4.6-5,7.9-6.7c3.4-1.7,7.2-2.5,11.5-2.5
		c4.7,0,8.9,0.9,12.5,2.6c3.4,1.7,6.1,4.2,8.2,7.8c2.1,3.5,3.1,8.3,3.1,14.2V225C1056.5,228.6,1057.8,231.8,1060.2,234.2z"/>
	<path class="st0" d="M240.8,113.8c4.1,4.3,4.1,8.4,3.3,11c-0.8,2.9-2.7,4.8-2.8,4.9L241,130h-11.3l-0.3-0.5
		c-4.6-7.3-1.2-12.3-0.2-13.7v-10l-15.6,8.9c-0.5,0.3-1,0.5-1.5,0.8v29.2v5.9v1l-0.3,0.1c-1.1,3.7-3.6,6.7-7.4,8.9h-0.1
		c-3,1.7-6.3,2.6-9.8,2.6c-1.9,0-3.9-0.3-5.9-0.8c-5.1-1.4-9.2-4.3-11.8-8.3l-0.1-0.1c-2.1-3.4-4.7-6.2-7.7-8.5s-6.5-4.1-10.6-5.4
		c-4.1-1.3-9-2-14.8-2h-1.2c-9.8,0-18.1,1.6-24.6,4.9c-5.7,2.9-8.2,6.8-8.2,12.8c0,3.1,0.9,6,2.7,8.9c1.7,2.7,5.2,5.1,10.3,7.3
		c5.8,2.5,14.5,4.2,25.9,5.2c20.2,1.8,36.3,7.4,47.9,16.7c12,9.6,18,22.4,18,37.9c0,9-2.2,17-6.5,23.7c-4.2,6.6-9.9,12.3-16.9,16.7
		c-6.9,4.4-14.8,7.7-23.5,9.8c-8.5,2.1-17.5,3.2-26.6,3.2c-10.8,0-21.3-1.5-31.1-4.5c-9.9-3-18.7-7.3-26.1-12.8
		c-7.6-5.6-13.2-12.2-16.8-19.6c-3.2-6-1.5-10.9,0.5-13.9c1.9-2.8,5.6-6.4,13.1-7.8c1.3-0.3,2.7-0.4,4-0.4c3.2,0,6.3,0.7,9.3,2.1
		c4.1,2,7.2,4.9,9.3,8.8c1.4,2.5,3.8,5,7.2,7.3c3.7,2.5,8.3,4.6,13.6,6.1c5.4,1.6,11.1,2.4,17.1,2.4c6.7,0,12.9-0.9,18.4-2.7
		c5.3-1.7,9.4-4.1,12.6-7.3c2.8-2.8,4.1-6.2,4.1-10.5c0-5.7-2.5-10.7-7.8-15.4c-5.3-4.8-14.7-7.8-27.9-9c-20.9-1.8-37.7-7.4-50-16.7
		c-12.8-9.7-19.2-21.9-19.2-36.3c0-2.6,0.2-5,0.6-7.4v-34.2L30.4,88.1c-1.3-0.8-2.5-1.7-3.5-2.7v137.3c0,0.9,0.4,19.5,14.4,42.5
		c8.4,13.8,20,26.5,34.4,37.8c17.6,13.7,39.4,25.3,65,34.5c25.6-9.2,47.5-20.8,65-34.5c14.5-11.3,26.1-24,34.5-37.8
		c13.9-22.9,14.4-41.5,14.4-42.5V91.4l-13.8,7.9L240.8,113.8L240.8,113.8z"/>
	<path class="st0" d="M35.9,73.5L79,99.6c0.1,0,0.2,0.1,0.2,0.1c2-1.4,17.1-11.5,38.8-16.7c11-2.6,25-4.2,40.5-1.9l0,0
		c9.4,1.4,19.3,4.2,29.4,9c5.7,2.7,11.4,6,17.2,10.1c0.2-0.1,0.5-0.2,0.7-0.3l24.5-14v30.2c0,0,0,0-0.1,0.1s-0.5,0.5-0.9,1.2
		c-0.1,0.1-0.1,0.2-0.2,0.4c-0.1,0.1-0.1,0.3-0.2,0.4c-0.1,0.2-0.2,0.5-0.3,0.8c-0.8,2.2-1,5.6,1.7,9.9h10.3c0,0,1.1-1.1,1.9-2.9
		c0.1-0.2,0.1-0.3,0.2-0.5c0.1-0.1,0.1-0.2,0.1-0.4c1-2.8,1.1-6.8-3.1-11V80.5l11.8-6.7c4-2.2,3.6-8.1-0.6-9.8L144.2,19.9
		c-1.4-0.6-2.9-0.5-4.2,0L36.6,63.8C32.5,65.5,32.1,71.2,35.9,73.5z"/>
	<path class="st0" d="M118.6,85c-18.5,4.4-32.1,12.4-36.7,15.4c-0.8,0.5-1.3,0.9-1.6,1.1v24.9c0,0,66-44.7,123.5,0v-24.5
		c-0.6-0.4-1.1-0.8-1.6-1.1C170.3,79,139.2,80.1,118.6,85z"/>
</g>
</svg>
