<?xml version="1.0" encoding="utf-8"?>
<!-- Generator: Adobe Illustrator 26.0.1, SVG Export Plug-In . SVG Version: 6.00 Build 0)  -->
<svg version="1.1" id="Layer_1" xmlns="http://www.w3.org/2000/svg" xmlns:xlink="http://www.w3.org/1999/xlink" x="0px" y="0px"
	 viewBox="0 0 1214.5 288.2" style="enable-background:new 0 0 1214.5 288.2;" xml:space="preserve">
<style type="text/css">
	.st0{fill:#FFFFFF;}
</style>
<g>
	<path class="st0" d="M286.1,45.4v16.2H137.4c-7,0-13.1,4.7-14.9,11.4l-5.2,19.4l-11,41l-3.1,11.4c-2.6,9.8,4.8,19.4,14.9,19.4h82.4
		c4.1,0,7,3.8,5.9,7.8l-5.1,19c-0.7,2.7-3.2,4.6-5.9,4.6H70.9c-4.5,0-8.1-3.6-8.1-8.1V45.4c0-7.1,5.8-12.9,12.9-12.9h197.4
		C280.3,32.5,286.1,38.3,286.1,45.4z"/>
	<path class="st0" d="M154,92.5h124c4.5,0,8.1,3.6,8.1,8.1v142.2c0,7.1-5.8,12.9-12.9,12.9H75.7c-7.1,0-12.9-5.8-12.9-12.9v-16.2
		h149.3c7,0,13.1-4.7,14.9-11.4l5.2-19.4l8.4-31.4l3.1-11.4c2.6-9.8-4.8-19.4-14.9-19.4h-82.4c-4.1,0-7-3.8-6-7.8L148,97
		C148.8,94.3,151.2,92.5,154,92.5z"/>
	<g>
		<g>
			<polygon class="st0" points="965.6,87.6 938.4,87.6 900.7,135.3 863,87.6 835.4,87.6 886.9,152.7 835,218.3 862.6,218.3 
				900.7,170.2 938.8,218.3 965.6,218.3 965.6,217.2 914.5,152.7 965.6,88.2 			"/>
			<polygon class="st0" points="718.1,87.6 676.1,203 645.2,87.6 622.7,87.6 657.8,218.3 670.5,218.3 680.2,218.3 693.6,218.3 
				741.1,87.7 741.1,87.6 			"/>
			<path class="st0" d="M518,196.5h16.4c2.3,0,4.1,1.8,4.1,4.1v13.5c0,2.3-1.8,4.1-4.1,4.1h-41.2c-3.1,0-5.4-2.8-4.9-5.8l2.8-15.9
				l25.3-143.7h22L514,191.7C513.5,194.2,515.4,196.5,518,196.5z"/>
			<path class="st0" d="M581.4,196.5h16.4c2.3,0,4.1,1.8,4.1,4.1v13.5c0,2.3-1.8,4.1-4.1,4.1h-41.2c-3.1,0-5.4-2.8-4.9-5.8l2.8-15.9
				l25.3-143.7h22l-24.5,138.9C577,194.2,578.9,196.5,581.4,196.5z"/>
			<path class="st0" d="M451.8,87.5h-86h-15.5c-3.8,0-7,2.7-7.7,6.5l-2.7,15.2l-7.7,43.4l-3.8,21.7l-3.9,22.2l-2.2,12.5
				c-0.8,4.8,2.8,9.2,7.7,9.2h12.7h86h15.5c3.8,0,7-2.7,7.7-6.5l1.1-6.1c0.8-4.8-2.8-9.2-7.7-9.2h-12.7h-86l3.9-22.2h86h15.4
				c3.8,0,7-2.7,7.7-6.5l2.7-15.2l7.7-43.4l2.2-12.5c0.8-4.8-2.8-9.2-7.7-9.2H451.8z M435.9,152.6h-75.4c-3.3,0-5.7-2.9-5.2-6.2
				l5.8-32.9c0.4-2.5,2.6-4.3,5.2-4.3h75.4c3.3,0,5.7,2.9,5.2,6.2l-5.8,32.9C440.6,150.8,438.4,152.6,435.9,152.6z"/>
			<path class="st0" d="M807.8,200.6v13.4c0,2.3-1.8,4.1-4.1,4.1h-41.2c-3.1,0-5.4-2.8-4.9-5.8l2.8-15.9l19.2-108.8h22l-18.3,104
				c-0.4,2.5,1.5,4.8,4,4.8h16.4C805.9,196.5,807.8,198.4,807.8,200.6z"/>
			<polygon class="st0" points="807.8,50.3 803.8,72.6 781.8,72.6 785.8,50.3 			"/>
			<path class="st0" d="M1147.6,196.6h-16.4c-2.5,0-4.5-2.3-4-4.8l14.5-82.4l2.7-15.5c0.6-3.3-2-6.4-5.3-6.4h-116
				c-2.6,0-4.9,1.9-5.3,4.5l-3.1,17.3l-18.1,102.6c-0.6,3.3,2,6.4,5.3,6.4l106.4-0.1c1.6-0.3,3.3-1,4.3-1.9c1.3-1.3,2-3,2-4.9
				c0,1.9,0.8,3.7,2,4.9c0.9,0.9,1.5,1.6,2.6,1.9h28.4c2.3,0,4.1-1.8,4.1-4.1v-13.5C1151.7,198.5,1149.9,196.6,1147.6,196.6z
				 M1100.9,196.6h-74.7c-2.5,0-4.4-2.3-4-4.8l13.9-79c0.3-1.9,2-3.4,4-3.4h74.7c2.5,0,4.4,2.3,4,4.8l-13.9,79
				C1104.5,195.2,1102.9,196.6,1100.9,196.6z"/>
		</g>
	</g>
</g>
</svg>
