<?xml version="1.0" encoding="utf-8"?>
<!-- Generator: Adobe Illustrator 26.0.1, SVG Export Plug-In . SVG Version: 6.00 Build 0)  -->
<svg version="1.1" id="Layer_1" xmlns="http://www.w3.org/2000/svg" xmlns:xlink="http://www.w3.org/1999/xlink" x="0px" y="0px"
	 viewBox="0 0 273.2 270.4" style="enable-background:new 0 0 273.2 270.4;" xml:space="preserve">
<style type="text/css">
	.st0{fill:#FFFFFF;}
</style>
<g>
	<path class="st0" d="M136.7,227.9c-5.9,0.2-10.4-1.6-14.4-5c-10.4-9-20.8-17.9-31.1-27c-7.8-6.9-15-14.5-20.4-23.6
		c-5.9-10-9.3-20.6-8.4-32.5c1.6-19.4,16.8-35,36.1-37.3c16.2-1.9,28.8,4.5,39.4,15.9c0.6,0.6,1.2,1.3,1.9,2.1
		c2.4-2.1,4.7-4.1,7-6.2c9.4-8.6,20.3-13,33.1-12.1c19.6,1.4,35.3,16.4,37.7,35.9c1.9,15.6-3.2,28.9-12.7,40.9
		c-11.6,14.7-25.5,27-40.3,38.3c-5.4,4.1-11.5,7.3-17.5,10.7c-3.1,1.7-4.3,1.3-6.8-1.3c-13-13.1-24.2-27.5-32-44.4
		c-1.6-3.4-1.5-3.6,1.8-5.2c2.6-1.2,4.2-3.1,4.7-6c0.7-3.8,1.9-7.5,2.5-11.3c1.4-8.9,2.7-17.8,3.6-26.8c0.5-4.9-1.9-7.6-6.7-8.9
		c-2.3-0.6-4.6-1.4-6.9-1.7c-2.3-0.3-3.1,0.7-3,3c0.2,2.2,1.5,2.7,3.4,2.3c0.7-0.1,1.5-0.2,2.1-0.6c4.4-2.2,8.8,0.5,8.8,5.5
		c0,8.8-1.7,17.3-4.1,25.7c-1.1,3.9-2,8-2.8,12c-0.4,2.1-1.4,3.6-3.4,4c-2.4,0.5-4.9,0.8-7.4,0.7c-1.2-0.1-2.9-1.2-3.4-2.3
		c-4.7-10.1-9.3-20.4-13.8-30.6c-0.8-1.8-1.2-3.9-1.6-5.8c-0.9-4.3,3-8.1,7.3-7.2c1,0.2,2.1,0.1,3.1,0.1c1.8-0.1,2.2-1.4,2-2.9
		c-0.2-1.7-1.1-3.1-2.8-2.4c-4,1.6-8.4,3.1-10.9,6.9c-1,1.5-1.5,4-1,5.7c1.8,6.2,3.9,12.3,6.3,18.3c2.4,6.1,5.3,12.1,7.9,18.2
		c1.3,3.2,3.5,5,6.8,5.4c1.5,0.2,2.3,0.8,3,2.3c7.3,17,17.9,31.7,30.6,45C135.3,226.2,135.8,226.9,136.7,227.9z M141.3,226.6
		c5.2-6.6,10.3-12.7,15-19c9.3-12.7,16.8-26.4,21.5-41.5c0.5-1.5,1-2.6,2.7-3.2c4.4-1.6,6.4-6.7,4.6-11.1c-1.7-4.2-6.5-6.4-10.8-4.8
		c-4.3,1.6-6.6,6.2-5.3,10.6c1,3.1,3.2,4.9,6.3,6c-7,23.2-20.5,42.5-36.2,60.1C140,224.6,140.5,225.4,141.3,226.6z"/>
	<path class="st0" d="M131.9,58.1c-0.1,8.3-2.6,15.7-8.6,21.7c-8.5,8.5-20.5,8.8-29.4,0.8c-13-11.7-14.5-32.1-3.4-45.6
		c8-9.7,21.6-10.6,30.9-2C128.2,39.3,132,48.3,131.9,58.1z"/>
	<path class="st0" d="M190.1,62.6c-0.2,7.8-2.4,14.9-7.6,20.9c-9.9,11.2-25.7,10.4-34.4-1.7c-9-12.7-6-32.5,6.4-41.6
		c9.8-7.2,22.3-5.4,29.7,4.3C188,49.5,190.2,56.2,190.1,62.6z"/>
	<path class="st0" d="M195.4,84.9c0.4-10,4.5-18,13.2-23.1c12.9-7.5,26.8-0.9,28.7,14c1.4,11.6-4.5,24.5-18.5,28.6
		c-11.9,3.4-22.9-4.8-23.4-17.3C195.4,86.4,195.4,85.6,195.4,84.9z"/>
	<path class="st0" d="M78.6,90c0,15-13.7,23.7-27.3,17.3C41,102.5,34.7,91.4,35.8,80.1C37,68.4,48,61.2,59.7,64.6
		C70.6,67.7,78.6,78.5,78.6,90z"/>
	<path class="st0" d="M177.4,160.8c-3.3,0-5.9-2.5-5.9-5.8s2.6-5.9,5.8-5.8c3.1,0,5.7,2.6,5.8,5.7
		C183.2,158.1,180.6,160.8,177.4,160.8z M177.3,159.1c2.4,0,4.1-1.8,4-4.1c0-2.3-1.7-3.9-4-4c-2.3,0-4.2,1.8-4.2,4.1
		C173.2,157.3,175,159.1,177.3,159.1z"/>
</g>
</svg>
